<svg xmlns="http://www.w3.org/2000/svg" width="1200" height="1200" viewBox="0 0 1200 1200" role="img">

  <defs>
    <linearGradient id="copper" x1="0" y1="0" x2="1" y2="0.3">
      <stop offset="0"    stop-color="#7E4318"/>
      <stop offset="0.18" stop-color="#C98346"/>
      <stop offset="0.34" stop-color="#F0BE86"/>
      <stop offset="0.46" stop-color="#C77F3F"/>
      <stop offset="0.72" stop-color="#A25F26"/>
      <stop offset="0.88" stop-color="#D69A5C"/>
      <stop offset="1"    stop-color="#6E3A15"/>
    </linearGradient>
    <linearGradient id="copperSoft" x1="0" y1="0" x2="1" y2="0.2">
      <stop offset="0"    stop-color="#8A4C1C"/>
      <stop offset="0.3"  stop-color="#D79A5E"/>
      <stop offset="0.55" stop-color="#B87333"/>
      <stop offset="1"    stop-color="#753F17"/>
    </linearGradient>
    <linearGradient id="acacia" x1="0" y1="0" x2="0.4" y2="1">
      <stop offset="0"   stop-color="#9C6B3F"/>
      <stop offset="0.5" stop-color="#C08E5A"/>
      <stop offset="1"   stop-color="#7E5330"/>
    </linearGradient>
    <linearGradient id="linen" x1="0" y1="0" x2="0.6" y2="1">
      <stop offset="0" stop-color="#EFE9E0"/>
      <stop offset="1" stop-color="#E3DACD"/>
    </linearGradient>
    <radialGradient id="sidelight" cx="0.28" cy="0.28" r="0.85">
      <stop offset="0"   stop-color="#FFFFFF" stop-opacity="0.55"/>
      <stop offset="0.5" stop-color="#FFFFFF" stop-opacity="0.10"/>
      <stop offset="1"   stop-color="#8A7F70" stop-opacity="0.16"/>
    </radialGradient>
    <radialGradient id="contactShadow" cx="0.5" cy="0.5" r="0.5">
      <stop offset="0"   stop-color="#14181A" stop-opacity="0.36"/>
      <stop offset="0.6" stop-color="#14181A" stop-opacity="0.12"/>
      <stop offset="1"   stop-color="#14181A" stop-opacity="0"/>
    </radialGradient>
    <filter id="grain">
      <feTurbulence type="fractalNoise" baseFrequency="0.9" numOctaves="3" seed="3329"/>
      <feColorMatrix type="saturate" values="0"/>
      <feComponentTransfer><feFuncA type="linear" slope="0.055"/></feComponentTransfer>
    </filter>
    <filter id="weave">
      <feTurbulence type="fractalNoise" baseFrequency="0.02 0.6" numOctaves="2" seed="3336"/>
      <feColorMatrix type="saturate" values="0"/>
      <feComponentTransfer><feFuncA type="linear" slope="0.07"/></feComponentTransfer>
    </filter>
    <filter id="softShadow" x="-40%" y="-40%" width="180%" height="180%">
      <feDropShadow dx="16" dy="26" stdDeviation="22" flood-color="#14181A" flood-opacity="0.20"/>
    </filter>
  </defs>
<rect width="1200" height="1200" fill="url(#copper)"/>
<circle cx="-167.6" cy="-42.6" r="56.4" fill="#FFE7CC" opacity="0.100"/><circle cx="-149.6" cy="-23.4" r="40.6" fill="#5A2E0C" opacity="0.178"/><circle cx="-37.6" cy="-43.3" r="52.1" fill="#FFE7CC" opacity="0.101"/><circle cx="-20.9" cy="-25.6" r="37.5" fill="#5A2E0C" opacity="0.174"/><circle cx="88.0" cy="-54.5" r="70.6" fill="#FFE7CC" opacity="0.087"/><circle cx="110.6" cy="-30.4" r="50.9" fill="#5A2E0C" opacity="0.107"/><circle cx="186.4" cy="-33.9" r="56.5" fill="#FFE7CC" opacity="0.219"/><circle cx="204.5" cy="-14.7" r="40.7" fill="#5A2E0C" opacity="0.170"/><circle cx="325.2" cy="-51.8" r="52.6" fill="#FFE7CC" opacity="0.151"/><circle cx="342.0" cy="-34.0" r="37.9" fill="#5A2E0C" opacity="0.180"/><circle cx="434.0" cy="-53.2" r="69.9" fill="#FFE7CC" opacity="0.195"/><circle cx="456.4" cy="-29.4" r="50.3" fill="#5A2E0C" opacity="0.177"/><circle cx="546.4" cy="-45.4" r="61.0" fill="#FFE7CC" opacity="0.113"/><circle cx="565.9" cy="-24.7" r="43.9" fill="#5A2E0C" opacity="0.113"/><circle cx="674.0" cy="-54.7" r="53.9" fill="#FFE7CC" opacity="0.071"/><circle cx="691.2" cy="-36.4" r="38.8" fill="#5A2E0C" opacity="0.111"/><circle cx="799.7" cy="-24.0" r="68.0" fill="#FFE7CC" opacity="0.070"/><circle cx="821.5" cy="-0.8" r="49.0" fill="#5A2E0C" opacity="0.103"/><circle cx="899.4" cy="-36.0" r="51.8" fill="#FFE7CC" opacity="0.178"/><circle cx="915.9" cy="-18.4" r="37.3" fill="#5A2E0C" opacity="0.143"/><circle cx="1034.6" cy="-39.3" r="69.9" fill="#FFE7CC" opacity="0.177"/><circle cx="1056.9" cy="-15.6" r="50.3" fill="#5A2E0C" opacity="0.146"/><circle cx="1154.3" cy="-43.9" r="66.5" fill="#FFE7CC" opacity="0.070"/><circle cx="1175.6" cy="-21.3" r="47.9" fill="#5A2E0C" opacity="0.086"/><circle cx="1244.7" cy="-56.3" r="57.8" fill="#FFE7CC" opacity="0.066"/><circle cx="1263.2" cy="-36.7" r="41.6" fill="#5A2E0C" opacity="0.101"/><circle cx="-110.0" cy="67.1" r="72.3" fill="#FFE7CC" opacity="0.188"/><circle cx="-86.9" cy="91.7" r="52.0" fill="#5A2E0C" opacity="0.151"/><circle cx="18.1" cy="48.4" r="49.8" fill="#FFE7CC" opacity="0.092"/><circle cx="34.1" cy="65.3" r="35.9" fill="#5A2E0C" opacity="0.119"/><circle cx="128.7" cy="55.3" r="61.4" fill="#FFE7CC" opacity="0.158"/><circle cx="148.4" cy="76.2" r="44.2" fill="#5A2E0C" opacity="0.139"/><circle cx="268.8" cy="75.7" r="52.4" fill="#FFE7CC" opacity="0.127"/><circle cx="285.6" cy="93.5" r="37.7" fill="#5A2E0C" opacity="0.092"/><circle cx="366.7" cy="50.6" r="57.8" fill="#FFE7CC" opacity="0.200"/><circle cx="385.2" cy="70.3" r="41.6" fill="#5A2E0C" opacity="0.169"/><circle cx="497.0" cy="73.7" r="69.6" fill="#FFE7CC" opacity="0.173"/><circle cx="519.2" cy="97.4" r="50.1" fill="#5A2E0C" opacity="0.165"/><circle cx="596.2" cy="64.6" r="51.9" fill="#FFE7CC" opacity="0.179"/><circle cx="612.8" cy="82.2" r="37.4" fill="#5A2E0C" opacity="0.094"/><circle cx="717.2" cy="58.3" r="65.4" fill="#FFE7CC" opacity="0.096"/><circle cx="738.1" cy="80.6" r="47.1" fill="#5A2E0C" opacity="0.183"/><circle cx="856.8" cy="56.7" r="61.7" fill="#FFE7CC" opacity="0.130"/><circle cx="876.5" cy="77.7" r="44.4" fill="#5A2E0C" opacity="0.103"/><circle cx="961.8" cy="62.8" r="63.9" fill="#FFE7CC" opacity="0.203"/><circle cx="982.2" cy="84.6" r="46.0" fill="#5A2E0C" opacity="0.067"/><circle cx="1077.1" cy="52.6" r="68.3" fill="#FFE7CC" opacity="0.122"/><circle cx="1099.0" cy="75.8" r="49.2" fill="#5A2E0C" opacity="0.059"/><circle cx="1202.7" cy="57.5" r="56.1" fill="#FFE7CC" opacity="0.121"/><circle cx="1220.7" cy="76.6" r="40.4" fill="#5A2E0C" opacity="0.106"/><circle cx="1311.5" cy="71.7" r="68.0" fill="#FFE7CC" opacity="0.136"/><circle cx="1333.3" cy="94.8" r="48.9" fill="#5A2E0C" opacity="0.055"/><circle cx="-174.3" cy="146.8" r="50.2" fill="#FFE7CC" opacity="0.127"/><circle cx="-158.2" cy="163.9" r="36.1" fill="#5A2E0C" opacity="0.187"/><circle cx="-50.3" cy="148.2" r="72.2" fill="#FFE7CC" opacity="0.128"/><circle cx="-27.2" cy="172.8" r="52.0" fill="#5A2E0C" opacity="0.108"/><circle cx="83.0" cy="147.8" r="66.2" fill="#FFE7CC" opacity="0.208"/><circle cx="104.2" cy="170.3" r="47.7" fill="#5A2E0C" opacity="0.087"/><circle cx="192.9" cy="150.9" r="62.1" fill="#FFE7CC" opacity="0.126"/><circle cx="212.8" cy="172.0" r="44.7" fill="#5A2E0C" opacity="0.081"/><circle cx="329.2" cy="162.3" r="59.2" fill="#FFE7CC" opacity="0.119"/><circle cx="348.2" cy="182.4" r="42.6" fill="#5A2E0C" opacity="0.125"/><circle cx="440.9" cy="151.0" r="55.7" fill="#FFE7CC" opacity="0.074"/><circle cx="458.7" cy="169.9" r="40.1" fill="#5A2E0C" opacity="0.138"/><circle cx="548.4" cy="168.9" r="64.2" fill="#FFE7CC" opacity="0.211"/><circle cx="569.0" cy="190.7" r="46.2" fill="#5A2E0C" opacity="0.053"/><circle cx="670.7" cy="173.9" r="51.8" fill="#FFE7CC" opacity="0.187"/><circle cx="687.3" cy="191.6" r="37.3" fill="#5A2E0C" opacity="0.118"/><circle cx="791.7" cy="163.7" r="63.8" fill="#FFE7CC" opacity="0.143"/><circle cx="812.2" cy="185.4" r="45.9" fill="#5A2E0C" opacity="0.159"/><circle cx="909.0" cy="160.3" r="53.0" fill="#FFE7CC" opacity="0.065"/><circle cx="925.9" cy="178.4" r="38.2" fill="#5A2E0C" opacity="0.098"/><circle cx="1024.8" cy="166.2" r="59.4" fill="#FFE7CC" opacity="0.201"/><circle cx="1043.8" cy="186.4" r="42.8" fill="#5A2E0C" opacity="0.149"/><circle cx="1125.8" cy="163.7" r="57.0" fill="#FFE7CC" opacity="0.185"/><circle cx="1144.1" cy="183.1" r="41.0" fill="#5A2E0C" opacity="0.140"/><circle cx="1266.8" cy="159.7" r="64.1" fill="#FFE7CC" opacity="0.206"/><circle cx="1287.3" cy="181.5" r="46.1" fill="#5A2E0C" opacity="0.186"/><circle cx="-104.1" cy="271.6" r="55.4" fill="#FFE7CC" opacity="0.215"/><circle cx="-86.4" cy="290.5" r="39.9" fill="#5A2E0C" opacity="0.175"/><circle cx="27.0" cy="262.1" r="55.2" fill="#FFE7CC" opacity="0.159"/><circle cx="44.7" cy="280.9" r="39.8" fill="#5A2E0C" opacity="0.102"/><circle cx="135.9" cy="260.8" r="60.1" fill="#FFE7CC" opacity="0.186"/><circle cx="155.1" cy="281.2" r="43.3" fill="#5A2E0C" opacity="0.166"/><circle cx="241.6" cy="254.3" r="71.1" fill="#FFE7CC" opacity="0.088"/><circle cx="264.3" cy="278.5" r="51.2" fill="#5A2E0C" opacity="0.076"/><circle cx="377.2" cy="260.4" r="68.7" fill="#FFE7CC" opacity="0.211"/><circle cx="399.1" cy="283.7" r="49.4" fill="#5A2E0C" opacity="0.135"/><circle cx="478.0" cy="277.4" r="64.0" fill="#FFE7CC" opacity="0.218"/><circle cx="498.4" cy="299.1" r="46.1" fill="#5A2E0C" opacity="0.137"/><circle cx="622.2" cy="259.3" r="73.1" fill="#FFE7CC" opacity="0.107"/><circle cx="645.6" cy="284.1" r="52.6" fill="#5A2E0C" opacity="0.182"/><circle cx="727.4" cy="279.1" r="51.6" fill="#FFE7CC" opacity="0.181"/><circle cx="743.9" cy="296.6" r="37.1" fill="#5A2E0C" opacity="0.108"/><circle cx="831.0" cy="272.4" r="71.2" fill="#FFE7CC" opacity="0.193"/><circle cx="853.8" cy="296.6" r="51.3" fill="#5A2E0C" opacity="0.068"/><circle cx="969.4" cy="271.1" r="60.1" fill="#FFE7CC" opacity="0.121"/><circle cx="988.7" cy="291.5" r="43.3" fill="#5A2E0C" opacity="0.092"/><circle cx="1085.8" cy="275.2" r="69.6" fill="#FFE7CC" opacity="0.126"/><circle cx="1108.0" cy="298.9" r="50.1" fill="#5A2E0C" opacity="0.087"/><circle cx="1196.9" cy="259.9" r="62.2" fill="#FFE7CC" opacity="0.210"/><circle cx="1216.8" cy="281.1" r="44.8" fill="#5A2E0C" opacity="0.157"/><circle cx="1328.6" cy="271.1" r="51.5" fill="#FFE7CC" opacity="0.090"/><circle cx="1345.1" cy="288.6" r="37.1" fill="#5A2E0C" opacity="0.072"/><circle cx="-141.6" cy="352.1" r="66.6" fill="#FFE7CC" opacity="0.124"/><circle cx="-120.3" cy="374.8" r="47.9" fill="#5A2E0C" opacity="0.092"/><circle cx="-39.8" cy="368.6" r="56.7" fill="#FFE7CC" opacity="0.170"/><circle cx="-21.6" cy="387.9" r="40.8" fill="#5A2E0C" opacity="0.115"/><circle cx="79.8" cy="350.0" r="60.1" fill="#FFE7CC" opacity="0.189"/><circle cx="99.1" cy="370.5" r="43.3" fill="#5A2E0C" opacity="0.139"/><circle cx="197.7" cy="359.1" r="60.2" fill="#FFE7CC" opacity="0.166"/><circle cx="217.0" cy="379.6" r="43.3" fill="#5A2E0C" opacity="0.118"/><circle cx="304.6" cy="373.4" r="57.9" fill="#FFE7CC" opacity="0.170"/><circle cx="323.1" cy="393.1" r="41.7" fill="#5A2E0C" opacity="0.187"/><circle cx="425.6" cy="354.2" r="64.7" fill="#FFE7CC" opacity="0.109"/><circle cx="446.3" cy="376.2" r="46.6" fill="#5A2E0C" opacity="0.088"/><circle cx="547.3" cy="353.6" r="61.9" fill="#FFE7CC" opacity="0.215"/><circle cx="567.1" cy="374.6" r="44.6" fill="#5A2E0C" opacity="0.114"/><circle cx="662.7" cy="351.8" r="63.2" fill="#FFE7CC" opacity="0.196"/><circle cx="682.9" cy="373.3" r="45.5" fill="#5A2E0C" opacity="0.079"/><circle cx="787.7" cy="362.8" r="67.3" fill="#FFE7CC" opacity="0.187"/><circle cx="809.3" cy="385.7" r="48.5" fill="#5A2E0C" opacity="0.104"/><circle cx="899.4" cy="357.0" r="66.9" fill="#FFE7CC" opacity="0.109"/><circle cx="920.8" cy="379.8" r="48.1" fill="#5A2E0C" opacity="0.165"/><circle cx="1030.6" cy="352.7" r="57.4" fill="#FFE7CC" opacity="0.075"/><circle cx="1049.0" cy="372.2" r="41.3" fill="#5A2E0C" opacity="0.130"/><circle cx="1142.4" cy="374.2" r="59.3" fill="#FFE7CC" opacity="0.105"/><circle cx="1161.4" cy="394.3" r="42.7" fill="#5A2E0C" opacity="0.138"/><circle cx="1266.5" cy="353.6" r="72.3" fill="#FFE7CC" opacity="0.154"/><circle cx="1289.6" cy="378.2" r="52.1" fill="#5A2E0C" opacity="0.153"/><circle cx="-99.9" cy="464.3" r="72.1" fill="#FFE7CC" opacity="0.166"/><circle cx="-76.8" cy="488.8" r="51.9" fill="#5A2E0C" opacity="0.056"/><circle cx="10.2" cy="463.5" r="69.7" fill="#FFE7CC" opacity="0.200"/><circle cx="32.5" cy="487.2" r="50.2" fill="#5A2E0C" opacity="0.147"/><circle cx="120.9" cy="470.1" r="57.9" fill="#FFE7CC" opacity="0.131"/><circle cx="139.4" cy="489.8" r="41.7" fill="#5A2E0C" opacity="0.189"/><circle cx="253.3" cy="456.9" r="69.1" fill="#FFE7CC" opacity="0.073"/><circle cx="275.4" cy="480.4" r="49.7" fill="#5A2E0C" opacity="0.134"/><circle cx="384.3" cy="451.4" r="50.7" fill="#FFE7CC" opacity="0.148"/><circle cx="400.5" cy="468.7" r="36.5" fill="#5A2E0C" opacity="0.128"/><circle cx="481.1" cy="459.8" r="65.8" fill="#FFE7CC" opacity="0.210"/><circle cx="502.1" cy="482.2" r="47.4" fill="#5A2E0C" opacity="0.145"/><circle cx="599.3" cy="451.1" r="69.0" fill="#FFE7CC" opacity="0.146"/><circle cx="621.4" cy="474.5" r="49.7" fill="#5A2E0C" opacity="0.129"/><circle cx="718.1" cy="462.3" r="52.4" fill="#FFE7CC" opacity="0.146"/><circle cx="734.9" cy="480.1" r="37.7" fill="#5A2E0C" opacity="0.066"/><circle cx="830.7" cy="466.9" r="70.0" fill="#FFE7CC" opacity="0.093"/><circle cx="853.1" cy="490.7" r="50.4" fill="#5A2E0C" opacity="0.057"/><circle cx="971.0" cy="479.9" r="66.3" fill="#FFE7CC" opacity="0.096"/><circle cx="992.2" cy="502.4" r="47.7" fill="#5A2E0C" opacity="0.091"/><circle cx="1071.3" cy="482.7" r="72.1" fill="#FFE7CC" opacity="0.195"/><circle cx="1094.4" cy="507.2" r="51.9" fill="#5A2E0C" opacity="0.072"/><circle cx="1193.0" cy="462.3" r="57.3" fill="#FFE7CC" opacity="0.065"/><circle cx="1211.3" cy="481.8" r="41.2" fill="#5A2E0C" opacity="0.126"/><circle cx="1305.9" cy="464.7" r="62.8" fill="#FFE7CC" opacity="0.081"/><circle cx="1326.0" cy="486.1" r="45.2" fill="#5A2E0C" opacity="0.097"/><circle cx="-156.0" cy="558.0" r="63.7" fill="#FFE7CC" opacity="0.163"/><circle cx="-135.6" cy="579.6" r="45.9" fill="#5A2E0C" opacity="0.139"/><circle cx="-52.3" cy="560.8" r="68.6" fill="#FFE7CC" opacity="0.212"/><circle cx="-30.4" cy="584.1" r="49.4" fill="#5A2E0C" opacity="0.065"/><circle cx="92.6" cy="555.4" r="71.4" fill="#FFE7CC" opacity="0.062"/><circle cx="115.4" cy="579.7" r="51.4" fill="#5A2E0C" opacity="0.062"/><circle cx="184.5" cy="584.9" r="58.7" fill="#FFE7CC" opacity="0.172"/><circle cx="203.2" cy="604.8" r="42.3" fill="#5A2E0C" opacity="0.074"/><circle cx="313.9" cy="561.9" r="54.8" fill="#FFE7CC" opacity="0.096"/><circle cx="331.5" cy="580.6" r="39.5" fill="#5A2E0C" opacity="0.060"/><circle cx="422.9" cy="582.8" r="69.0" fill="#FFE7CC" opacity="0.112"/><circle cx="445.0" cy="606.3" r="49.7" fill="#5A2E0C" opacity="0.085"/><circle cx="562.6" cy="568.8" r="64.1" fill="#FFE7CC" opacity="0.173"/><circle cx="583.1" cy="590.6" r="46.2" fill="#5A2E0C" opacity="0.072"/><circle cx="662.1" cy="571.9" r="54.6" fill="#FFE7CC" opacity="0.192"/><circle cx="679.6" cy="590.5" r="39.3" fill="#5A2E0C" opacity="0.169"/><circle cx="774.5" cy="585.1" r="66.8" fill="#FFE7CC" opacity="0.146"/><circle cx="795.9" cy="607.8" r="48.1" fill="#5A2E0C" opacity="0.064"/><circle cx="916.5" cy="558.3" r="64.8" fill="#FFE7CC" opacity="0.176"/><circle cx="937.2" cy="580.3" r="46.7" fill="#5A2E0C" opacity="0.171"/><circle cx="1009.7" cy="576.1" r="68.4" fill="#FFE7CC" opacity="0.125"/><circle cx="1031.6" cy="599.4" r="49.3" fill="#5A2E0C" opacity="0.130"/><circle cx="1125.5" cy="577.3" r="61.1" fill="#FFE7CC" opacity="0.182"/><circle cx="1145.0" cy="598.1" r="44.0" fill="#5A2E0C" opacity="0.054"/><circle cx="1268.0" cy="562.6" r="73.0" fill="#FFE7CC" opacity="0.207"/><circle cx="1291.4" cy="587.4" r="52.6" fill="#5A2E0C" opacity="0.065"/><circle cx="-93.9" cy="657.3" r="60.6" fill="#FFE7CC" opacity="0.166"/><circle cx="-74.5" cy="677.9" r="43.6" fill="#5A2E0C" opacity="0.086"/><circle cx="16.1" cy="666.8" r="51.5" fill="#FFE7CC" opacity="0.176"/><circle cx="32.6" cy="684.3" r="37.1" fill="#5A2E0C" opacity="0.090"/><circle cx="124.5" cy="686.8" r="70.0" fill="#FFE7CC" opacity="0.076"/><circle cx="146.9" cy="710.6" r="50.4" fill="#5A2E0C" opacity="0.151"/><circle cx="268.9" cy="686.4" r="56.7" fill="#FFE7CC" opacity="0.127"/><circle cx="287.1" cy="705.7" r="40.8" fill="#5A2E0C" opacity="0.127"/><circle cx="371.1" cy="667.4" r="53.1" fill="#FFE7CC" opacity="0.170"/><circle cx="388.1" cy="685.4" r="38.2" fill="#5A2E0C" opacity="0.175"/><circle cx="504.7" cy="667.7" r="51.5" fill="#FFE7CC" opacity="0.101"/><circle cx="521.2" cy="685.2" r="37.1" fill="#5A2E0C" opacity="0.071"/><circle cx="603.5" cy="671.7" r="63.8" fill="#FFE7CC" opacity="0.130"/><circle cx="624.0" cy="693.4" r="46.0" fill="#5A2E0C" opacity="0.146"/><circle cx="741.6" cy="654.8" r="49.6" fill="#FFE7CC" opacity="0.161"/><circle cx="757.5" cy="671.7" r="35.7" fill="#5A2E0C" opacity="0.091"/><circle cx="855.3" cy="665.2" r="71.9" fill="#FFE7CC" opacity="0.201"/><circle cx="878.3" cy="689.7" r="51.8" fill="#5A2E0C" opacity="0.050"/><circle cx="954.2" cy="678.2" r="68.4" fill="#FFE7CC" opacity="0.132"/><circle cx="976.1" cy="701.5" r="49.3" fill="#5A2E0C" opacity="0.060"/><circle cx="1065.7" cy="674.1" r="69.1" fill="#FFE7CC" opacity="0.175"/><circle cx="1087.8" cy="697.6" r="49.7" fill="#5A2E0C" opacity="0.088"/><circle cx="1206.7" cy="666.2" r="69.0" fill="#FFE7CC" opacity="0.127"/><circle cx="1228.8" cy="689.6" r="49.7" fill="#5A2E0C" opacity="0.057"/><circle cx="1318.6" cy="674.2" r="50.8" fill="#FFE7CC" opacity="0.077"/><circle cx="1334.9" cy="691.4" r="36.6" fill="#5A2E0C" opacity="0.094"/><circle cx="-160.9" cy="756.7" r="52.2" fill="#FFE7CC" opacity="0.063"/><circle cx="-144.3" cy="774.4" r="37.6" fill="#5A2E0C" opacity="0.083"/><circle cx="-39.0" cy="759.3" r="65.0" fill="#FFE7CC" opacity="0.141"/><circle cx="-18.2" cy="781.4" r="46.8" fill="#5A2E0C" opacity="0.066"/><circle cx="70.1" cy="760.6" r="51.6" fill="#FFE7CC" opacity="0.176"/><circle cx="86.6" cy="778.1" r="37.2" fill="#5A2E0C" opacity="0.172"/><circle cx="195.6" cy="776.2" r="52.2" fill="#FFE7CC" opacity="0.105"/><circle cx="212.3" cy="794.0" r="37.6" fill="#5A2E0C" opacity="0.079"/><circle cx="307.1" cy="773.3" r="54.4" fill="#FFE7CC" opacity="0.096"/><circle cx="324.5" cy="791.8" r="39.2" fill="#5A2E0C" opacity="0.141"/><circle cx="425.2" cy="771.4" r="58.8" fill="#FFE7CC" opacity="0.098"/><circle cx="444.0" cy="791.4" r="42.4" fill="#5A2E0C" opacity="0.177"/><circle cx="547.5" cy="786.2" r="63.8" fill="#FFE7CC" opacity="0.127"/><circle cx="568.0" cy="807.9" r="46.0" fill="#5A2E0C" opacity="0.103"/><circle cx="678.8" cy="773.3" r="60.4" fill="#FFE7CC" opacity="0.064"/><circle cx="698.1" cy="793.8" r="43.5" fill="#5A2E0C" opacity="0.062"/><circle cx="796.6" cy="788.3" r="67.3" fill="#FFE7CC" opacity="0.133"/><circle cx="818.2" cy="811.2" r="48.4" fill="#5A2E0C" opacity="0.180"/><circle cx="891.6" cy="768.1" r="72.3" fill="#FFE7CC" opacity="0.068"/><circle cx="914.7" cy="792.7" r="52.1" fill="#5A2E0C" opacity="0.139"/><circle cx="1030.6" cy="783.3" r="72.8" fill="#FFE7CC" opacity="0.100"/><circle cx="1053.9" cy="808.0" r="52.4" fill="#5A2E0C" opacity="0.134"/><circle cx="1142.7" cy="783.0" r="62.3" fill="#FFE7CC" opacity="0.151"/><circle cx="1162.7" cy="804.2" r="44.8" fill="#5A2E0C" opacity="0.059"/><circle cx="1248.8" cy="783.4" r="56.8" fill="#FFE7CC" opacity="0.196"/><circle cx="1266.9" cy="802.7" r="40.9" fill="#5A2E0C" opacity="0.139"/><circle cx="-92.2" cy="880.2" r="58.8" fill="#FFE7CC" opacity="0.064"/><circle cx="-73.4" cy="900.2" r="42.3" fill="#5A2E0C" opacity="0.089"/><circle cx="34.1" cy="865.7" r="51.0" fill="#FFE7CC" opacity="0.201"/><circle cx="50.4" cy="883.0" r="36.7" fill="#5A2E0C" opacity="0.140"/><circle cx="129.9" cy="873.6" r="72.5" fill="#FFE7CC" opacity="0.066"/><circle cx="153.1" cy="898.3" r="52.2" fill="#5A2E0C" opacity="0.129"/><circle cx="259.3" cy="888.5" r="52.7" fill="#FFE7CC" opacity="0.140"/><circle cx="276.1" cy="906.4" r="38.0" fill="#5A2E0C" opacity="0.157"/><circle cx="360.3" cy="886.9" r="72.3" fill="#FFE7CC" opacity="0.094"/><circle cx="383.5" cy="911.5" r="52.1" fill="#5A2E0C" opacity="0.095"/><circle cx="505.2" cy="859.0" r="60.1" fill="#FFE7CC" opacity="0.198"/><circle cx="524.4" cy="879.4" r="43.3" fill="#5A2E0C" opacity="0.151"/><circle cx="612.5" cy="857.3" r="58.8" fill="#FFE7CC" opacity="0.084"/><circle cx="631.4" cy="877.3" r="42.4" fill="#5A2E0C" opacity="0.176"/><circle cx="729.3" cy="860.2" r="50.1" fill="#FFE7CC" opacity="0.120"/><circle cx="745.4" cy="877.2" r="36.1" fill="#5A2E0C" opacity="0.149"/><circle cx="855.5" cy="858.9" r="65.2" fill="#FFE7CC" opacity="0.140"/><circle cx="876.4" cy="881.1" r="46.9" fill="#5A2E0C" opacity="0.118"/><circle cx="969.5" cy="872.0" r="62.9" fill="#FFE7CC" opacity="0.091"/><circle cx="989.6" cy="893.3" r="45.3" fill="#5A2E0C" opacity="0.056"/><circle cx="1079.3" cy="888.9" r="65.5" fill="#FFE7CC" opacity="0.169"/><circle cx="1100.2" cy="911.2" r="47.2" fill="#5A2E0C" opacity="0.141"/><circle cx="1194.3" cy="858.4" r="53.8" fill="#FFE7CC" opacity="0.167"/><circle cx="1211.5" cy="876.7" r="38.8" fill="#5A2E0C" opacity="0.086"/><circle cx="1328.3" cy="865.7" r="56.6" fill="#FFE7CC" opacity="0.111"/><circle cx="1346.4" cy="884.9" r="40.8" fill="#5A2E0C" opacity="0.188"/><circle cx="-170.2" cy="964.4" r="62.4" fill="#FFE7CC" opacity="0.185"/><circle cx="-150.3" cy="985.6" r="44.9" fill="#5A2E0C" opacity="0.185"/><circle cx="-38.8" cy="982.3" r="71.6" fill="#FFE7CC" opacity="0.082"/><circle cx="-15.8" cy="1006.6" r="51.6" fill="#5A2E0C" opacity="0.095"/><circle cx="88.5" cy="989.2" r="51.8" fill="#FFE7CC" opacity="0.075"/><circle cx="105.0" cy="1006.8" r="37.3" fill="#5A2E0C" opacity="0.177"/><circle cx="191.9" cy="976.0" r="59.5" fill="#FFE7CC" opacity="0.097"/><circle cx="210.9" cy="996.3" r="42.9" fill="#5A2E0C" opacity="0.072"/><circle cx="298.8" cy="975.9" r="56.4" fill="#FFE7CC" opacity="0.160"/><circle cx="316.8" cy="995.1" r="40.6" fill="#5A2E0C" opacity="0.151"/><circle cx="422.5" cy="973.2" r="58.5" fill="#FFE7CC" opacity="0.061"/><circle cx="441.2" cy="993.1" r="42.1" fill="#5A2E0C" opacity="0.057"/><circle cx="534.4" cy="973.4" r="64.6" fill="#FFE7CC" opacity="0.076"/><circle cx="555.0" cy="995.4" r="46.5" fill="#5A2E0C" opacity="0.066"/><circle cx="678.4" cy="990.5" r="51.5" fill="#FFE7CC" opacity="0.192"/><circle cx="694.9" cy="1008.0" r="37.1" fill="#5A2E0C" opacity="0.057"/><circle cx="785.1" cy="964.5" r="62.3" fill="#FFE7CC" opacity="0.128"/><circle cx="805.0" cy="985.7" r="44.9" fill="#5A2E0C" opacity="0.126"/><circle cx="894.7" cy="978.7" r="52.2" fill="#FFE7CC" opacity="0.181"/><circle cx="911.4" cy="996.5" r="37.6" fill="#5A2E0C" opacity="0.071"/><circle cx="1018.0" cy="964.8" r="65.2" fill="#FFE7CC" opacity="0.113"/><circle cx="1038.9" cy="987.0" r="47.0" fill="#5A2E0C" opacity="0.081"/><circle cx="1131.6" cy="984.3" r="66.4" fill="#FFE7CC" opacity="0.140"/><circle cx="1152.8" cy="1006.8" r="47.8" fill="#5A2E0C" opacity="0.135"/><circle cx="1251.0" cy="988.6" r="69.9" fill="#FFE7CC" opacity="0.156"/><circle cx="1273.4" cy="1012.3" r="50.4" fill="#5A2E0C" opacity="0.107"/><circle cx="-84.7" cy="1067.2" r="64.3" fill="#FFE7CC" opacity="0.076"/><circle cx="-64.2" cy="1089.1" r="46.3" fill="#5A2E0C" opacity="0.059"/><circle cx="17.0" cy="1088.8" r="72.5" fill="#FFE7CC" opacity="0.118"/><circle cx="40.2" cy="1113.5" r="52.2" fill="#5A2E0C" opacity="0.097"/><circle cx="135.6" cy="1066.2" r="55.1" fill="#FFE7CC" opacity="0.142"/><circle cx="153.2" cy="1084.9" r="39.7" fill="#5A2E0C" opacity="0.111"/><circle cx="246.2" cy="1091.1" r="52.7" fill="#FFE7CC" opacity="0.076"/><circle cx="263.0" cy="1109.0" r="37.9" fill="#5A2E0C" opacity="0.146"/><circle cx="363.3" cy="1068.8" r="69.1" fill="#FFE7CC" opacity="0.171"/><circle cx="385.4" cy="1092.3" r="49.8" fill="#5A2E0C" opacity="0.057"/><circle cx="505.9" cy="1065.1" r="66.7" fill="#FFE7CC" opacity="0.130"/><circle cx="527.2" cy="1087.8" r="48.0" fill="#5A2E0C" opacity="0.068"/><circle cx="614.5" cy="1085.5" r="59.4" fill="#FFE7CC" opacity="0.215"/><circle cx="633.5" cy="1105.7" r="42.8" fill="#5A2E0C" opacity="0.065"/><circle cx="723.1" cy="1065.0" r="67.8" fill="#FFE7CC" opacity="0.188"/><circle cx="744.8" cy="1088.1" r="48.8" fill="#5A2E0C" opacity="0.123"/><circle cx="830.1" cy="1063.7" r="54.1" fill="#FFE7CC" opacity="0.132"/><circle cx="847.4" cy="1082.0" r="38.9" fill="#5A2E0C" opacity="0.153"/><circle cx="956.0" cy="1075.5" r="55.4" fill="#FFE7CC" opacity="0.217"/><circle cx="973.7" cy="1094.4" r="39.9" fill="#5A2E0C" opacity="0.154"/><circle cx="1065.7" cy="1077.9" r="60.2" fill="#FFE7CC" opacity="0.180"/><circle cx="1084.9" cy="1098.4" r="43.3" fill="#5A2E0C" opacity="0.114"/><circle cx="1215.1" cy="1082.1" r="56.6" fill="#FFE7CC" opacity="0.069"/><circle cx="1233.2" cy="1101.3" r="40.7" fill="#5A2E0C" opacity="0.107"/><circle cx="1317.5" cy="1079.3" r="69.2" fill="#FFE7CC" opacity="0.131"/><circle cx="1339.6" cy="1102.8" r="49.8" fill="#5A2E0C" opacity="0.081"/><circle cx="-173.3" cy="1166.8" r="49.7" fill="#FFE7CC" opacity="0.066"/><circle cx="-157.4" cy="1183.7" r="35.8" fill="#5A2E0C" opacity="0.056"/><circle cx="-49.0" cy="1162.0" r="54.9" fill="#FFE7CC" opacity="0.068"/><circle cx="-31.5" cy="1180.6" r="39.5" fill="#5A2E0C" opacity="0.088"/><circle cx="85.4" cy="1177.9" r="63.0" fill="#FFE7CC" opacity="0.188"/><circle cx="105.6" cy="1199.4" r="45.4" fill="#5A2E0C" opacity="0.152"/><circle cx="202.9" cy="1187.3" r="61.1" fill="#FFE7CC" opacity="0.177"/><circle cx="222.5" cy="1208.0" r="44.0" fill="#5A2E0C" opacity="0.129"/><circle cx="324.3" cy="1169.8" r="53.1" fill="#FFE7CC" opacity="0.169"/><circle cx="341.2" cy="1187.8" r="38.2" fill="#5A2E0C" opacity="0.148"/><circle cx="441.0" cy="1168.4" r="65.7" fill="#FFE7CC" opacity="0.207"/><circle cx="462.1" cy="1190.8" r="47.3" fill="#5A2E0C" opacity="0.115"/><circle cx="537.3" cy="1187.6" r="68.1" fill="#FFE7CC" opacity="0.118"/><circle cx="559.1" cy="1210.8" r="49.1" fill="#5A2E0C" opacity="0.179"/><circle cx="677.9" cy="1165.1" r="65.9" fill="#FFE7CC" opacity="0.157"/><circle cx="698.9" cy="1187.5" r="47.4" fill="#5A2E0C" opacity="0.101"/><circle cx="776.5" cy="1175.6" r="52.8" fill="#FFE7CC" opacity="0.176"/><circle cx="793.4" cy="1193.5" r="38.0" fill="#5A2E0C" opacity="0.076"/><circle cx="916.1" cy="1190.7" r="69.4" fill="#FFE7CC" opacity="0.115"/><circle cx="938.3" cy="1214.3" r="49.9" fill="#5A2E0C" opacity="0.073"/><circle cx="1024.2" cy="1163.6" r="71.1" fill="#FFE7CC" opacity="0.097"/><circle cx="1047.0" cy="1187.7" r="51.2" fill="#5A2E0C" opacity="0.051"/><circle cx="1143.3" cy="1192.4" r="56.0" fill="#FFE7CC" opacity="0.090"/><circle cx="1161.3" cy="1211.5" r="40.3" fill="#5A2E0C" opacity="0.066"/><circle cx="1267.4" cy="1161.8" r="59.7" fill="#FFE7CC" opacity="0.148"/><circle cx="1286.6" cy="1182.1" r="43.0" fill="#5A2E0C" opacity="0.135"/>
<ellipse cx="252" cy="526" rx="195" ry="136" fill="#FFE7CC" opacity="0.07"/><ellipse cx="248" cy="493" rx="170" ry="119" fill="#FFE7CC" opacity="0.07"/><ellipse cx="381" cy="1028" rx="279" ry="195" fill="#FFE7CC" opacity="0.07"/><ellipse cx="346" cy="273" rx="121" ry="84" fill="#FFE7CC" opacity="0.07"/><ellipse cx="741" cy="227" rx="254" ry="178" fill="#FFE7CC" opacity="0.07"/>
<rect width="1200" height="1200" fill="url(#sidelight)" opacity="0.5"/>
<rect width="1200" height="1200" filter="url(#grain)" opacity="0.5"/></svg>