<svg xmlns="http://www.w3.org/2000/svg" width="1200" height="1200" viewBox="0 0 1200 1200" role="img">

  <defs>
    <linearGradient id="copper" x1="0" y1="0" x2="1" y2="0.3">
      <stop offset="0"    stop-color="#7E4318"/>
      <stop offset="0.18" stop-color="#C98346"/>
      <stop offset="0.34" stop-color="#F0BE86"/>
      <stop offset="0.46" stop-color="#C77F3F"/>
      <stop offset="0.72" stop-color="#A25F26"/>
      <stop offset="0.88" stop-color="#D69A5C"/>
      <stop offset="1"    stop-color="#6E3A15"/>
    </linearGradient>
    <linearGradient id="copperSoft" x1="0" y1="0" x2="1" y2="0.2">
      <stop offset="0"    stop-color="#8A4C1C"/>
      <stop offset="0.3"  stop-color="#D79A5E"/>
      <stop offset="0.55" stop-color="#B87333"/>
      <stop offset="1"    stop-color="#753F17"/>
    </linearGradient>
    <linearGradient id="acacia" x1="0" y1="0" x2="0.4" y2="1">
      <stop offset="0"   stop-color="#9C6B3F"/>
      <stop offset="0.5" stop-color="#C08E5A"/>
      <stop offset="1"   stop-color="#7E5330"/>
    </linearGradient>
    <linearGradient id="linen" x1="0" y1="0" x2="0.6" y2="1">
      <stop offset="0" stop-color="#EFE9E0"/>
      <stop offset="1" stop-color="#E3DACD"/>
    </linearGradient>
    <radialGradient id="sidelight" cx="0.28" cy="0.28" r="0.85">
      <stop offset="0"   stop-color="#FFFFFF" stop-opacity="0.55"/>
      <stop offset="0.5" stop-color="#FFFFFF" stop-opacity="0.10"/>
      <stop offset="1"   stop-color="#8A7F70" stop-opacity="0.16"/>
    </radialGradient>
    <radialGradient id="contactShadow" cx="0.5" cy="0.5" r="0.5">
      <stop offset="0"   stop-color="#14181A" stop-opacity="0.36"/>
      <stop offset="0.6" stop-color="#14181A" stop-opacity="0.12"/>
      <stop offset="1"   stop-color="#14181A" stop-opacity="0"/>
    </radialGradient>
    <filter id="grain">
      <feTurbulence type="fractalNoise" baseFrequency="0.9" numOctaves="3" seed="3192"/>
      <feColorMatrix type="saturate" values="0"/>
      <feComponentTransfer><feFuncA type="linear" slope="0.055"/></feComponentTransfer>
    </filter>
    <filter id="weave">
      <feTurbulence type="fractalNoise" baseFrequency="0.02 0.6" numOctaves="2" seed="3199"/>
      <feColorMatrix type="saturate" values="0"/>
      <feComponentTransfer><feFuncA type="linear" slope="0.07"/></feComponentTransfer>
    </filter>
    <filter id="softShadow" x="-40%" y="-40%" width="180%" height="180%">
      <feDropShadow dx="16" dy="26" stdDeviation="22" flood-color="#14181A" flood-opacity="0.20"/>
    </filter>
  </defs>
<rect width="1200" height="1200" fill="url(#copper)"/>
<circle cx="-168.3" cy="-39.5" r="68.1" fill="#FFE7CC" opacity="0.104"/><circle cx="-146.5" cy="-16.4" r="49.0" fill="#5A2E0C" opacity="0.184"/><circle cx="-49.3" cy="-26.9" r="67.7" fill="#FFE7CC" opacity="0.197"/><circle cx="-27.6" cy="-3.9" r="48.7" fill="#5A2E0C" opacity="0.091"/><circle cx="63.7" cy="-52.7" r="60.3" fill="#FFE7CC" opacity="0.141"/><circle cx="83.0" cy="-32.2" r="43.4" fill="#5A2E0C" opacity="0.146"/><circle cx="209.5" cy="-32.2" r="58.9" fill="#FFE7CC" opacity="0.126"/><circle cx="228.3" cy="-12.2" r="42.4" fill="#5A2E0C" opacity="0.185"/><circle cx="311.2" cy="-37.6" r="56.1" fill="#FFE7CC" opacity="0.089"/><circle cx="329.1" cy="-18.5" r="40.4" fill="#5A2E0C" opacity="0.159"/><circle cx="415.9" cy="-47.5" r="57.1" fill="#FFE7CC" opacity="0.180"/><circle cx="434.1" cy="-28.1" r="41.1" fill="#5A2E0C" opacity="0.138"/><circle cx="539.1" cy="-54.3" r="61.5" fill="#FFE7CC" opacity="0.212"/><circle cx="558.8" cy="-33.4" r="44.3" fill="#5A2E0C" opacity="0.136"/><circle cx="654.9" cy="-34.6" r="51.2" fill="#FFE7CC" opacity="0.112"/><circle cx="671.3" cy="-17.2" r="36.9" fill="#5A2E0C" opacity="0.184"/><circle cx="788.3" cy="-47.2" r="66.2" fill="#FFE7CC" opacity="0.099"/><circle cx="809.5" cy="-24.7" r="47.7" fill="#5A2E0C" opacity="0.114"/><circle cx="894.1" cy="-37.1" r="64.2" fill="#FFE7CC" opacity="0.147"/><circle cx="914.6" cy="-15.3" r="46.2" fill="#5A2E0C" opacity="0.056"/><circle cx="1014.5" cy="-35.9" r="70.5" fill="#FFE7CC" opacity="0.185"/><circle cx="1037.0" cy="-12.0" r="50.7" fill="#5A2E0C" opacity="0.170"/><circle cx="1134.6" cy="-49.5" r="60.3" fill="#FFE7CC" opacity="0.122"/><circle cx="1153.9" cy="-29.0" r="43.4" fill="#5A2E0C" opacity="0.101"/><circle cx="1262.7" cy="-26.2" r="62.1" fill="#FFE7CC" opacity="0.131"/><circle cx="1282.5" cy="-5.1" r="44.7" fill="#5A2E0C" opacity="0.179"/><circle cx="-114.2" cy="53.4" r="58.4" fill="#FFE7CC" opacity="0.123"/><circle cx="-95.5" cy="73.2" r="42.0" fill="#5A2E0C" opacity="0.082"/><circle cx="12.6" cy="52.0" r="53.3" fill="#FFE7CC" opacity="0.157"/><circle cx="29.7" cy="70.1" r="38.4" fill="#5A2E0C" opacity="0.081"/><circle cx="146.0" cy="47.3" r="57.9" fill="#FFE7CC" opacity="0.131"/><circle cx="164.6" cy="67.0" r="41.7" fill="#5A2E0C" opacity="0.063"/><circle cx="252.3" cy="67.9" r="53.6" fill="#FFE7CC" opacity="0.150"/><circle cx="269.5" cy="86.1" r="38.6" fill="#5A2E0C" opacity="0.165"/><circle cx="360.7" cy="61.8" r="57.6" fill="#FFE7CC" opacity="0.097"/><circle cx="379.2" cy="81.4" r="41.5" fill="#5A2E0C" opacity="0.112"/><circle cx="487.5" cy="72.5" r="52.8" fill="#FFE7CC" opacity="0.060"/><circle cx="504.4" cy="90.5" r="38.0" fill="#5A2E0C" opacity="0.074"/><circle cx="599.6" cy="48.6" r="54.7" fill="#FFE7CC" opacity="0.149"/><circle cx="617.1" cy="67.2" r="39.4" fill="#5A2E0C" opacity="0.099"/><circle cx="729.1" cy="51.2" r="56.5" fill="#FFE7CC" opacity="0.195"/><circle cx="747.2" cy="70.4" r="40.7" fill="#5A2E0C" opacity="0.124"/><circle cx="855.4" cy="61.1" r="59.7" fill="#FFE7CC" opacity="0.156"/><circle cx="874.5" cy="81.4" r="43.0" fill="#5A2E0C" opacity="0.066"/><circle cx="959.0" cy="69.6" r="63.4" fill="#FFE7CC" opacity="0.207"/><circle cx="979.2" cy="91.2" r="45.7" fill="#5A2E0C" opacity="0.161"/><circle cx="1076.1" cy="71.4" r="69.0" fill="#FFE7CC" opacity="0.167"/><circle cx="1098.2" cy="94.9" r="49.7" fill="#5A2E0C" opacity="0.065"/><circle cx="1190.1" cy="57.7" r="69.4" fill="#FFE7CC" opacity="0.214"/><circle cx="1212.3" cy="81.3" r="50.0" fill="#5A2E0C" opacity="0.177"/><circle cx="1313.8" cy="65.5" r="71.1" fill="#FFE7CC" opacity="0.119"/><circle cx="1336.5" cy="89.6" r="51.2" fill="#5A2E0C" opacity="0.104"/><circle cx="-167.3" cy="163.7" r="60.1" fill="#FFE7CC" opacity="0.070"/><circle cx="-148.1" cy="184.1" r="43.3" fill="#5A2E0C" opacity="0.072"/><circle cx="-27.7" cy="162.5" r="64.1" fill="#FFE7CC" opacity="0.181"/><circle cx="-7.2" cy="184.3" r="46.1" fill="#5A2E0C" opacity="0.167"/><circle cx="82.1" cy="159.6" r="59.7" fill="#FFE7CC" opacity="0.207"/><circle cx="101.2" cy="179.9" r="43.0" fill="#5A2E0C" opacity="0.137"/><circle cx="183.7" cy="146.7" r="65.0" fill="#FFE7CC" opacity="0.106"/><circle cx="204.5" cy="168.8" r="46.8" fill="#5A2E0C" opacity="0.064"/><circle cx="314.5" cy="175.0" r="66.2" fill="#FFE7CC" opacity="0.164"/><circle cx="335.7" cy="197.6" r="47.7" fill="#5A2E0C" opacity="0.171"/><circle cx="439.3" cy="154.4" r="65.1" fill="#FFE7CC" opacity="0.081"/><circle cx="460.1" cy="176.5" r="46.9" fill="#5A2E0C" opacity="0.135"/><circle cx="549.4" cy="159.9" r="69.9" fill="#FFE7CC" opacity="0.109"/><circle cx="571.8" cy="183.7" r="50.3" fill="#5A2E0C" opacity="0.160"/><circle cx="671.9" cy="177.7" r="60.6" fill="#FFE7CC" opacity="0.186"/><circle cx="691.3" cy="198.3" r="43.6" fill="#5A2E0C" opacity="0.174"/><circle cx="780.8" cy="162.7" r="50.1" fill="#FFE7CC" opacity="0.088"/><circle cx="796.9" cy="179.7" r="36.1" fill="#5A2E0C" opacity="0.183"/><circle cx="908.6" cy="172.9" r="62.6" fill="#FFE7CC" opacity="0.188"/><circle cx="928.6" cy="194.2" r="45.0" fill="#5A2E0C" opacity="0.073"/><circle cx="1009.8" cy="177.9" r="56.1" fill="#FFE7CC" opacity="0.178"/><circle cx="1027.7" cy="197.0" r="40.4" fill="#5A2E0C" opacity="0.115"/><circle cx="1136.9" cy="173.9" r="63.7" fill="#FFE7CC" opacity="0.138"/><circle cx="1157.3" cy="195.6" r="45.8" fill="#5A2E0C" opacity="0.133"/><circle cx="1261.4" cy="166.6" r="64.5" fill="#FFE7CC" opacity="0.142"/><circle cx="1282.0" cy="188.5" r="46.4" fill="#5A2E0C" opacity="0.140"/><circle cx="-104.0" cy="280.9" r="64.7" fill="#FFE7CC" opacity="0.073"/><circle cx="-83.3" cy="302.9" r="46.6" fill="#5A2E0C" opacity="0.129"/><circle cx="24.4" cy="249.4" r="61.3" fill="#FFE7CC" opacity="0.201"/><circle cx="44.0" cy="270.3" r="44.2" fill="#5A2E0C" opacity="0.061"/><circle cx="141.0" cy="275.7" r="58.2" fill="#FFE7CC" opacity="0.141"/><circle cx="159.6" cy="295.5" r="41.9" fill="#5A2E0C" opacity="0.105"/><circle cx="265.1" cy="248.2" r="67.1" fill="#FFE7CC" opacity="0.154"/><circle cx="286.6" cy="271.1" r="48.3" fill="#5A2E0C" opacity="0.080"/><circle cx="361.7" cy="277.7" r="68.2" fill="#FFE7CC" opacity="0.108"/><circle cx="383.6" cy="300.9" r="49.1" fill="#5A2E0C" opacity="0.144"/><circle cx="500.1" cy="262.0" r="57.3" fill="#FFE7CC" opacity="0.185"/><circle cx="518.4" cy="281.5" r="41.3" fill="#5A2E0C" opacity="0.141"/><circle cx="607.1" cy="273.2" r="57.0" fill="#FFE7CC" opacity="0.208"/><circle cx="625.3" cy="292.6" r="41.0" fill="#5A2E0C" opacity="0.130"/><circle cx="716.3" cy="265.8" r="52.5" fill="#FFE7CC" opacity="0.075"/><circle cx="733.1" cy="283.7" r="37.8" fill="#5A2E0C" opacity="0.157"/><circle cx="831.6" cy="269.0" r="63.7" fill="#FFE7CC" opacity="0.122"/><circle cx="852.0" cy="290.6" r="45.8" fill="#5A2E0C" opacity="0.164"/><circle cx="954.5" cy="280.0" r="57.1" fill="#FFE7CC" opacity="0.094"/><circle cx="972.8" cy="299.4" r="41.1" fill="#5A2E0C" opacity="0.146"/><circle cx="1070.1" cy="269.5" r="54.7" fill="#FFE7CC" opacity="0.071"/><circle cx="1087.6" cy="288.1" r="39.4" fill="#5A2E0C" opacity="0.125"/><circle cx="1187.4" cy="267.2" r="65.9" fill="#FFE7CC" opacity="0.182"/><circle cx="1208.4" cy="289.6" r="47.5" fill="#5A2E0C" opacity="0.119"/><circle cx="1316.3" cy="250.0" r="64.7" fill="#FFE7CC" opacity="0.217"/><circle cx="1337.0" cy="272.0" r="46.6" fill="#5A2E0C" opacity="0.182"/><circle cx="-150.3" cy="380.2" r="55.5" fill="#FFE7CC" opacity="0.195"/><circle cx="-132.6" cy="399.1" r="39.9" fill="#5A2E0C" opacity="0.140"/><circle cx="-40.5" cy="377.0" r="59.9" fill="#FFE7CC" opacity="0.187"/><circle cx="-21.3" cy="397.3" r="43.1" fill="#5A2E0C" opacity="0.084"/><circle cx="67.8" cy="349.7" r="57.3" fill="#FFE7CC" opacity="0.123"/><circle cx="86.2" cy="369.2" r="41.2" fill="#5A2E0C" opacity="0.168"/><circle cx="198.9" cy="353.8" r="67.0" fill="#FFE7CC" opacity="0.125"/><circle cx="220.4" cy="376.6" r="48.3" fill="#5A2E0C" opacity="0.144"/><circle cx="317.9" cy="373.4" r="54.1" fill="#FFE7CC" opacity="0.183"/><circle cx="335.3" cy="391.8" r="39.0" fill="#5A2E0C" opacity="0.114"/><circle cx="427.5" cy="367.5" r="55.2" fill="#FFE7CC" opacity="0.151"/><circle cx="445.1" cy="386.2" r="39.8" fill="#5A2E0C" opacity="0.107"/><circle cx="555.8" cy="363.3" r="63.4" fill="#FFE7CC" opacity="0.194"/><circle cx="576.1" cy="384.8" r="45.6" fill="#5A2E0C" opacity="0.078"/><circle cx="654.7" cy="355.9" r="55.9" fill="#FFE7CC" opacity="0.105"/><circle cx="672.6" cy="375.0" r="40.3" fill="#5A2E0C" opacity="0.172"/><circle cx="782.8" cy="376.2" r="63.3" fill="#FFE7CC" opacity="0.181"/><circle cx="803.1" cy="397.7" r="45.6" fill="#5A2E0C" opacity="0.087"/><circle cx="895.2" cy="375.1" r="57.8" fill="#FFE7CC" opacity="0.118"/><circle cx="913.7" cy="394.8" r="41.6" fill="#5A2E0C" opacity="0.173"/><circle cx="1009.2" cy="369.0" r="63.3" fill="#FFE7CC" opacity="0.130"/><circle cx="1029.4" cy="390.5" r="45.6" fill="#5A2E0C" opacity="0.097"/><circle cx="1124.1" cy="350.1" r="68.3" fill="#FFE7CC" opacity="0.187"/><circle cx="1146.0" cy="373.3" r="49.2" fill="#5A2E0C" opacity="0.117"/><circle cx="1242.8" cy="360.7" r="63.1" fill="#FFE7CC" opacity="0.112"/><circle cx="1263.0" cy="382.2" r="45.4" fill="#5A2E0C" opacity="0.119"/><circle cx="-95.6" cy="464.3" r="53.5" fill="#FFE7CC" opacity="0.217"/><circle cx="-78.5" cy="482.5" r="38.5" fill="#5A2E0C" opacity="0.149"/><circle cx="3.1" cy="481.2" r="70.4" fill="#FFE7CC" opacity="0.211"/><circle cx="25.7" cy="505.1" r="50.7" fill="#5A2E0C" opacity="0.170"/><circle cx="132.6" cy="469.0" r="50.1" fill="#FFE7CC" opacity="0.179"/><circle cx="148.6" cy="486.0" r="36.1" fill="#5A2E0C" opacity="0.148"/><circle cx="252.7" cy="452.8" r="61.9" fill="#FFE7CC" opacity="0.061"/><circle cx="272.5" cy="473.9" r="44.6" fill="#5A2E0C" opacity="0.123"/><circle cx="386.9" cy="477.1" r="71.3" fill="#FFE7CC" opacity="0.183"/><circle cx="409.7" cy="501.4" r="51.3" fill="#5A2E0C" opacity="0.088"/><circle cx="490.1" cy="474.9" r="68.0" fill="#FFE7CC" opacity="0.111"/><circle cx="511.9" cy="498.0" r="48.9" fill="#5A2E0C" opacity="0.138"/><circle cx="612.7" cy="477.9" r="55.2" fill="#FFE7CC" opacity="0.061"/><circle cx="630.4" cy="496.7" r="39.8" fill="#5A2E0C" opacity="0.078"/><circle cx="742.1" cy="468.6" r="66.3" fill="#FFE7CC" opacity="0.219"/><circle cx="763.3" cy="491.2" r="47.8" fill="#5A2E0C" opacity="0.134"/><circle cx="831.4" cy="458.7" r="58.0" fill="#FFE7CC" opacity="0.095"/><circle cx="850.0" cy="478.4" r="41.8" fill="#5A2E0C" opacity="0.179"/><circle cx="978.3" cy="465.9" r="69.2" fill="#FFE7CC" opacity="0.116"/><circle cx="1000.4" cy="489.4" r="49.8" fill="#5A2E0C" opacity="0.089"/><circle cx="1078.9" cy="455.3" r="55.9" fill="#FFE7CC" opacity="0.081"/><circle cx="1096.8" cy="474.3" r="40.3" fill="#5A2E0C" opacity="0.150"/><circle cx="1208.3" cy="479.3" r="63.9" fill="#FFE7CC" opacity="0.112"/><circle cx="1228.8" cy="501.0" r="46.0" fill="#5A2E0C" opacity="0.068"/><circle cx="1309.0" cy="477.6" r="70.1" fill="#FFE7CC" opacity="0.185"/><circle cx="1331.5" cy="501.5" r="50.4" fill="#5A2E0C" opacity="0.170"/><circle cx="-152.9" cy="580.4" r="52.3" fill="#FFE7CC" opacity="0.102"/><circle cx="-136.2" cy="598.2" r="37.7" fill="#5A2E0C" opacity="0.072"/><circle cx="-51.0" cy="565.3" r="54.8" fill="#FFE7CC" opacity="0.090"/><circle cx="-33.5" cy="584.0" r="39.4" fill="#5A2E0C" opacity="0.164"/><circle cx="84.9" cy="571.1" r="70.9" fill="#FFE7CC" opacity="0.218"/><circle cx="107.6" cy="595.2" r="51.1" fill="#5A2E0C" opacity="0.084"/><circle cx="206.4" cy="560.6" r="57.5" fill="#FFE7CC" opacity="0.158"/><circle cx="224.8" cy="580.1" r="41.4" fill="#5A2E0C" opacity="0.109"/><circle cx="321.9" cy="577.4" r="52.6" fill="#FFE7CC" opacity="0.076"/><circle cx="338.7" cy="595.3" r="37.9" fill="#5A2E0C" opacity="0.154"/><circle cx="440.0" cy="555.7" r="68.0" fill="#FFE7CC" opacity="0.196"/><circle cx="461.8" cy="578.8" r="48.9" fill="#5A2E0C" opacity="0.151"/><circle cx="556.2" cy="563.5" r="71.8" fill="#FFE7CC" opacity="0.161"/><circle cx="579.2" cy="587.9" r="51.7" fill="#5A2E0C" opacity="0.188"/><circle cx="684.2" cy="562.1" r="67.9" fill="#FFE7CC" opacity="0.125"/><circle cx="706.0" cy="585.2" r="48.9" fill="#5A2E0C" opacity="0.173"/><circle cx="776.1" cy="558.0" r="60.5" fill="#FFE7CC" opacity="0.174"/><circle cx="795.5" cy="578.6" r="43.5" fill="#5A2E0C" opacity="0.099"/><circle cx="920.5" cy="555.5" r="62.9" fill="#FFE7CC" opacity="0.177"/><circle cx="940.6" cy="576.9" r="45.3" fill="#5A2E0C" opacity="0.093"/><circle cx="1034.7" cy="556.3" r="54.9" fill="#FFE7CC" opacity="0.071"/><circle cx="1052.3" cy="575.0" r="39.5" fill="#5A2E0C" opacity="0.069"/><circle cx="1153.5" cy="573.8" r="72.6" fill="#FFE7CC" opacity="0.202"/><circle cx="1176.8" cy="598.5" r="52.3" fill="#5A2E0C" opacity="0.149"/><circle cx="1271.6" cy="557.8" r="70.7" fill="#FFE7CC" opacity="0.071"/><circle cx="1294.3" cy="581.9" r="50.9" fill="#5A2E0C" opacity="0.121"/><circle cx="-97.8" cy="664.6" r="50.6" fill="#FFE7CC" opacity="0.145"/><circle cx="-81.6" cy="681.8" r="36.4" fill="#5A2E0C" opacity="0.146"/><circle cx="8.5" cy="673.8" r="71.5" fill="#FFE7CC" opacity="0.082"/><circle cx="31.3" cy="698.1" r="51.4" fill="#5A2E0C" opacity="0.086"/><circle cx="145.9" cy="664.7" r="56.7" fill="#FFE7CC" opacity="0.208"/><circle cx="164.0" cy="684.0" r="40.8" fill="#5A2E0C" opacity="0.103"/><circle cx="264.8" cy="668.8" r="50.0" fill="#FFE7CC" opacity="0.064"/><circle cx="280.8" cy="685.8" r="36.0" fill="#5A2E0C" opacity="0.177"/><circle cx="379.0" cy="682.8" r="71.8" fill="#FFE7CC" opacity="0.091"/><circle cx="401.9" cy="707.2" r="51.7" fill="#5A2E0C" opacity="0.102"/><circle cx="499.0" cy="660.8" r="53.1" fill="#FFE7CC" opacity="0.084"/><circle cx="516.0" cy="678.9" r="38.2" fill="#5A2E0C" opacity="0.141"/><circle cx="608.5" cy="662.8" r="63.4" fill="#FFE7CC" opacity="0.067"/><circle cx="628.8" cy="684.3" r="45.7" fill="#5A2E0C" opacity="0.122"/><circle cx="711.0" cy="683.9" r="61.7" fill="#FFE7CC" opacity="0.142"/><circle cx="730.7" cy="704.8" r="44.4" fill="#5A2E0C" opacity="0.084"/><circle cx="833.1" cy="660.4" r="65.7" fill="#FFE7CC" opacity="0.150"/><circle cx="854.1" cy="682.8" r="47.3" fill="#5A2E0C" opacity="0.054"/><circle cx="967.4" cy="675.7" r="58.6" fill="#FFE7CC" opacity="0.147"/><circle cx="986.1" cy="695.6" r="42.2" fill="#5A2E0C" opacity="0.057"/><circle cx="1066.9" cy="663.3" r="64.3" fill="#FFE7CC" opacity="0.088"/><circle cx="1087.4" cy="685.2" r="46.3" fill="#5A2E0C" opacity="0.157"/><circle cx="1211.0" cy="656.7" r="59.9" fill="#FFE7CC" opacity="0.078"/><circle cx="1230.2" cy="677.0" r="43.1" fill="#5A2E0C" opacity="0.095"/><circle cx="1324.8" cy="668.2" r="71.3" fill="#FFE7CC" opacity="0.109"/><circle cx="1347.6" cy="692.4" r="51.4" fill="#5A2E0C" opacity="0.079"/><circle cx="-173.0" cy="785.0" r="64.1" fill="#FFE7CC" opacity="0.111"/><circle cx="-152.5" cy="806.8" r="46.2" fill="#5A2E0C" opacity="0.068"/><circle cx="-30.1" cy="763.0" r="51.8" fill="#FFE7CC" opacity="0.065"/><circle cx="-13.5" cy="780.6" r="37.3" fill="#5A2E0C" opacity="0.164"/><circle cx="64.3" cy="784.9" r="51.5" fill="#FFE7CC" opacity="0.126"/><circle cx="80.8" cy="802.4" r="37.1" fill="#5A2E0C" opacity="0.094"/><circle cx="198.5" cy="781.8" r="69.0" fill="#FFE7CC" opacity="0.106"/><circle cx="220.5" cy="805.3" r="49.7" fill="#5A2E0C" opacity="0.054"/><circle cx="327.5" cy="763.0" r="49.7" fill="#FFE7CC" opacity="0.158"/><circle cx="343.4" cy="779.9" r="35.8" fill="#5A2E0C" opacity="0.096"/><circle cx="419.8" cy="774.2" r="61.4" fill="#FFE7CC" opacity="0.111"/><circle cx="439.4" cy="795.1" r="44.2" fill="#5A2E0C" opacity="0.178"/><circle cx="565.6" cy="762.5" r="72.4" fill="#FFE7CC" opacity="0.157"/><circle cx="588.8" cy="787.1" r="52.1" fill="#5A2E0C" opacity="0.069"/><circle cx="673.3" cy="756.9" r="50.6" fill="#FFE7CC" opacity="0.195"/><circle cx="689.5" cy="774.1" r="36.4" fill="#5A2E0C" opacity="0.083"/><circle cx="770.4" cy="767.9" r="62.8" fill="#FFE7CC" opacity="0.082"/><circle cx="790.4" cy="789.2" r="45.2" fill="#5A2E0C" opacity="0.051"/><circle cx="909.4" cy="784.9" r="53.0" fill="#FFE7CC" opacity="0.087"/><circle cx="926.4" cy="803.0" r="38.2" fill="#5A2E0C" opacity="0.132"/><circle cx="1026.2" cy="773.0" r="55.8" fill="#FFE7CC" opacity="0.160"/><circle cx="1044.1" cy="792.0" r="40.2" fill="#5A2E0C" opacity="0.135"/><circle cx="1126.0" cy="780.3" r="64.1" fill="#FFE7CC" opacity="0.063"/><circle cx="1146.5" cy="802.1" r="46.2" fill="#5A2E0C" opacity="0.128"/><circle cx="1271.4" cy="772.6" r="51.5" fill="#FFE7CC" opacity="0.206"/><circle cx="1287.9" cy="790.1" r="37.1" fill="#5A2E0C" opacity="0.094"/><circle cx="-102.7" cy="881.3" r="63.9" fill="#FFE7CC" opacity="0.100"/><circle cx="-82.2" cy="903.0" r="46.0" fill="#5A2E0C" opacity="0.090"/><circle cx="24.1" cy="880.5" r="50.0" fill="#FFE7CC" opacity="0.198"/><circle cx="40.1" cy="897.5" r="36.0" fill="#5A2E0C" opacity="0.080"/><circle cx="125.6" cy="866.8" r="60.6" fill="#FFE7CC" opacity="0.193"/><circle cx="144.9" cy="887.4" r="43.6" fill="#5A2E0C" opacity="0.113"/><circle cx="260.2" cy="868.9" r="57.6" fill="#FFE7CC" opacity="0.091"/><circle cx="278.6" cy="888.5" r="41.5" fill="#5A2E0C" opacity="0.074"/><circle cx="360.8" cy="868.6" r="60.7" fill="#FFE7CC" opacity="0.143"/><circle cx="380.2" cy="889.2" r="43.7" fill="#5A2E0C" opacity="0.171"/><circle cx="493.1" cy="884.1" r="54.0" fill="#FFE7CC" opacity="0.157"/><circle cx="510.4" cy="902.5" r="38.9" fill="#5A2E0C" opacity="0.119"/><circle cx="614.8" cy="883.7" r="51.0" fill="#FFE7CC" opacity="0.121"/><circle cx="631.1" cy="901.1" r="36.7" fill="#5A2E0C" opacity="0.063"/><circle cx="731.8" cy="870.0" r="61.0" fill="#FFE7CC" opacity="0.081"/><circle cx="751.3" cy="890.8" r="43.9" fill="#5A2E0C" opacity="0.155"/><circle cx="839.6" cy="887.5" r="68.6" fill="#FFE7CC" opacity="0.064"/><circle cx="861.6" cy="910.9" r="49.4" fill="#5A2E0C" opacity="0.062"/><circle cx="958.0" cy="878.7" r="58.0" fill="#FFE7CC" opacity="0.077"/><circle cx="976.6" cy="898.4" r="41.7" fill="#5A2E0C" opacity="0.185"/><circle cx="1088.6" cy="863.8" r="58.4" fill="#FFE7CC" opacity="0.126"/><circle cx="1107.3" cy="883.7" r="42.0" fill="#5A2E0C" opacity="0.105"/><circle cx="1211.0" cy="888.1" r="65.7" fill="#FFE7CC" opacity="0.215"/><circle cx="1232.0" cy="910.5" r="47.3" fill="#5A2E0C" opacity="0.099"/><circle cx="1331.8" cy="873.0" r="57.0" fill="#FFE7CC" opacity="0.215"/><circle cx="1350.0" cy="892.4" r="41.1" fill="#5A2E0C" opacity="0.123"/><circle cx="-143.1" cy="977.6" r="62.4" fill="#FFE7CC" opacity="0.093"/><circle cx="-123.1" cy="998.8" r="44.9" fill="#5A2E0C" opacity="0.088"/><circle cx="-29.3" cy="976.1" r="55.8" fill="#FFE7CC" opacity="0.215"/><circle cx="-11.4" cy="995.1" r="40.2" fill="#5A2E0C" opacity="0.136"/><circle cx="89.8" cy="977.5" r="70.2" fill="#FFE7CC" opacity="0.137"/><circle cx="112.2" cy="1001.4" r="50.5" fill="#5A2E0C" opacity="0.109"/><circle cx="181.3" cy="964.2" r="54.5" fill="#FFE7CC" opacity="0.168"/><circle cx="198.7" cy="982.7" r="39.2" fill="#5A2E0C" opacity="0.131"/><circle cx="319.6" cy="987.8" r="60.4" fill="#FFE7CC" opacity="0.175"/><circle cx="339.0" cy="1008.4" r="43.5" fill="#5A2E0C" opacity="0.059"/><circle cx="425.9" cy="979.6" r="62.7" fill="#FFE7CC" opacity="0.074"/><circle cx="445.9" cy="1000.9" r="45.1" fill="#5A2E0C" opacity="0.093"/><circle cx="556.1" cy="960.8" r="58.3" fill="#FFE7CC" opacity="0.106"/><circle cx="574.7" cy="980.6" r="42.0" fill="#5A2E0C" opacity="0.129"/><circle cx="670.0" cy="984.9" r="64.2" fill="#FFE7CC" opacity="0.072"/><circle cx="690.5" cy="1006.7" r="46.2" fill="#5A2E0C" opacity="0.101"/><circle cx="782.1" cy="966.9" r="56.5" fill="#FFE7CC" opacity="0.200"/><circle cx="800.2" cy="986.1" r="40.7" fill="#5A2E0C" opacity="0.102"/><circle cx="915.9" cy="979.5" r="70.0" fill="#FFE7CC" opacity="0.158"/><circle cx="938.3" cy="1003.3" r="50.4" fill="#5A2E0C" opacity="0.166"/><circle cx="1028.4" cy="985.7" r="51.0" fill="#FFE7CC" opacity="0.184"/><circle cx="1044.7" cy="1003.0" r="36.7" fill="#5A2E0C" opacity="0.082"/><circle cx="1146.7" cy="966.9" r="70.9" fill="#FFE7CC" opacity="0.104"/><circle cx="1169.4" cy="991.0" r="51.0" fill="#5A2E0C" opacity="0.137"/><circle cx="1262.3" cy="970.0" r="68.9" fill="#FFE7CC" opacity="0.130"/><circle cx="1284.3" cy="993.4" r="49.6" fill="#5A2E0C" opacity="0.079"/><circle cx="-92.8" cy="1075.0" r="51.6" fill="#FFE7CC" opacity="0.154"/><circle cx="-76.3" cy="1092.6" r="37.2" fill="#5A2E0C" opacity="0.126"/><circle cx="22.2" cy="1069.0" r="71.9" fill="#FFE7CC" opacity="0.217"/><circle cx="45.2" cy="1093.4" r="51.7" fill="#5A2E0C" opacity="0.171"/><circle cx="141.6" cy="1079.0" r="58.1" fill="#FFE7CC" opacity="0.158"/><circle cx="160.2" cy="1098.7" r="41.8" fill="#5A2E0C" opacity="0.135"/><circle cx="270.5" cy="1088.1" r="53.4" fill="#FFE7CC" opacity="0.088"/><circle cx="287.6" cy="1106.3" r="38.5" fill="#5A2E0C" opacity="0.089"/><circle cx="365.2" cy="1078.1" r="66.9" fill="#FFE7CC" opacity="0.197"/><circle cx="386.5" cy="1100.8" r="48.1" fill="#5A2E0C" opacity="0.188"/><circle cx="476.3" cy="1081.2" r="64.8" fill="#FFE7CC" opacity="0.209"/><circle cx="497.0" cy="1103.2" r="46.7" fill="#5A2E0C" opacity="0.115"/><circle cx="615.6" cy="1087.1" r="71.4" fill="#FFE7CC" opacity="0.103"/><circle cx="638.4" cy="1111.4" r="51.4" fill="#5A2E0C" opacity="0.129"/><circle cx="735.9" cy="1083.5" r="73.1" fill="#FFE7CC" opacity="0.164"/><circle cx="759.3" cy="1108.4" r="52.6" fill="#5A2E0C" opacity="0.138"/><circle cx="843.1" cy="1087.6" r="70.6" fill="#FFE7CC" opacity="0.183"/><circle cx="865.7" cy="1111.6" r="50.9" fill="#5A2E0C" opacity="0.146"/><circle cx="953.4" cy="1078.5" r="53.2" fill="#FFE7CC" opacity="0.200"/><circle cx="970.4" cy="1096.6" r="38.3" fill="#5A2E0C" opacity="0.188"/><circle cx="1094.4" cy="1085.4" r="60.4" fill="#FFE7CC" opacity="0.113"/><circle cx="1113.7" cy="1105.9" r="43.5" fill="#5A2E0C" opacity="0.061"/><circle cx="1188.3" cy="1073.5" r="60.6" fill="#FFE7CC" opacity="0.145"/><circle cx="1207.7" cy="1094.1" r="43.7" fill="#5A2E0C" opacity="0.172"/><circle cx="1303.8" cy="1077.4" r="52.2" fill="#FFE7CC" opacity="0.078"/><circle cx="1320.5" cy="1095.2" r="37.6" fill="#5A2E0C" opacity="0.177"/><circle cx="-166.8" cy="1175.0" r="68.6" fill="#FFE7CC" opacity="0.088"/><circle cx="-144.9" cy="1198.3" r="49.4" fill="#5A2E0C" opacity="0.151"/><circle cx="-41.7" cy="1177.8" r="63.2" fill="#FFE7CC" opacity="0.087"/><circle cx="-21.5" cy="1199.3" r="45.5" fill="#5A2E0C" opacity="0.109"/><circle cx="87.0" cy="1180.7" r="72.3" fill="#FFE7CC" opacity="0.196"/><circle cx="110.2" cy="1205.3" r="52.1" fill="#5A2E0C" opacity="0.098"/><circle cx="197.2" cy="1177.5" r="71.1" fill="#FFE7CC" opacity="0.195"/><circle cx="220.0" cy="1201.6" r="51.2" fill="#5A2E0C" opacity="0.127"/><circle cx="302.3" cy="1162.2" r="68.6" fill="#FFE7CC" opacity="0.204"/><circle cx="324.2" cy="1185.5" r="49.4" fill="#5A2E0C" opacity="0.184"/><circle cx="418.2" cy="1171.9" r="50.4" fill="#FFE7CC" opacity="0.140"/><circle cx="434.3" cy="1189.0" r="36.3" fill="#5A2E0C" opacity="0.152"/><circle cx="561.0" cy="1179.5" r="69.8" fill="#FFE7CC" opacity="0.138"/><circle cx="583.3" cy="1203.2" r="50.2" fill="#5A2E0C" opacity="0.092"/><circle cx="659.0" cy="1175.6" r="64.0" fill="#FFE7CC" opacity="0.195"/><circle cx="679.5" cy="1197.4" r="46.1" fill="#5A2E0C" opacity="0.111"/><circle cx="797.6" cy="1171.9" r="53.6" fill="#FFE7CC" opacity="0.167"/><circle cx="814.8" cy="1190.1" r="38.6" fill="#5A2E0C" opacity="0.126"/><circle cx="911.9" cy="1173.6" r="55.7" fill="#FFE7CC" opacity="0.093"/><circle cx="929.7" cy="1192.5" r="40.1" fill="#5A2E0C" opacity="0.085"/><circle cx="1007.5" cy="1183.2" r="53.2" fill="#FFE7CC" opacity="0.151"/><circle cx="1024.5" cy="1201.3" r="38.3" fill="#5A2E0C" opacity="0.069"/><circle cx="1150.7" cy="1178.1" r="54.8" fill="#FFE7CC" opacity="0.137"/><circle cx="1168.2" cy="1196.7" r="39.5" fill="#5A2E0C" opacity="0.159"/><circle cx="1259.8" cy="1191.7" r="67.3" fill="#FFE7CC" opacity="0.213"/><circle cx="1281.3" cy="1214.6" r="48.4" fill="#5A2E0C" opacity="0.123"/>
<ellipse cx="227" cy="711" rx="312" ry="219" fill="#FFE7CC" opacity="0.07"/><ellipse cx="382" cy="699" rx="291" ry="204" fill="#FFE7CC" opacity="0.07"/><ellipse cx="952" cy="703" rx="158" ry="111" fill="#FFE7CC" opacity="0.07"/><ellipse cx="1118" cy="402" rx="154" ry="108" fill="#FFE7CC" opacity="0.07"/><ellipse cx="505" cy="391" rx="188" ry="132" fill="#FFE7CC" opacity="0.07"/>
<rect width="1200" height="1200" fill="url(#sidelight)" opacity="0.5"/>
<rect width="1200" height="1200" filter="url(#grain)" opacity="0.5"/></svg>