<svg xmlns="http://www.w3.org/2000/svg" width="1200" height="1200" viewBox="0 0 1200 1200" role="img">

  <defs>
    <linearGradient id="copper" x1="0" y1="0" x2="1" y2="0.3">
      <stop offset="0"    stop-color="#7E4318"/>
      <stop offset="0.18" stop-color="#C98346"/>
      <stop offset="0.34" stop-color="#F0BE86"/>
      <stop offset="0.46" stop-color="#C77F3F"/>
      <stop offset="0.72" stop-color="#A25F26"/>
      <stop offset="0.88" stop-color="#D69A5C"/>
      <stop offset="1"    stop-color="#6E3A15"/>
    </linearGradient>
    <linearGradient id="copperSoft" x1="0" y1="0" x2="1" y2="0.2">
      <stop offset="0"    stop-color="#8A4C1C"/>
      <stop offset="0.3"  stop-color="#D79A5E"/>
      <stop offset="0.55" stop-color="#B87333"/>
      <stop offset="1"    stop-color="#753F17"/>
    </linearGradient>
    <linearGradient id="acacia" x1="0" y1="0" x2="0.4" y2="1">
      <stop offset="0"   stop-color="#9C6B3F"/>
      <stop offset="0.5" stop-color="#C08E5A"/>
      <stop offset="1"   stop-color="#7E5330"/>
    </linearGradient>
    <linearGradient id="linen" x1="0" y1="0" x2="0.6" y2="1">
      <stop offset="0" stop-color="#EFE9E0"/>
      <stop offset="1" stop-color="#E3DACD"/>
    </linearGradient>
    <radialGradient id="sidelight" cx="0.28" cy="0.28" r="0.85">
      <stop offset="0"   stop-color="#FFFFFF" stop-opacity="0.55"/>
      <stop offset="0.5" stop-color="#FFFFFF" stop-opacity="0.10"/>
      <stop offset="1"   stop-color="#8A7F70" stop-opacity="0.16"/>
    </radialGradient>
    <radialGradient id="contactShadow" cx="0.5" cy="0.5" r="0.5">
      <stop offset="0"   stop-color="#14181A" stop-opacity="0.36"/>
      <stop offset="0.6" stop-color="#14181A" stop-opacity="0.12"/>
      <stop offset="1"   stop-color="#14181A" stop-opacity="0"/>
    </radialGradient>
    <filter id="grain">
      <feTurbulence type="fractalNoise" baseFrequency="0.9" numOctaves="3" seed="1411"/>
      <feColorMatrix type="saturate" values="0"/>
      <feComponentTransfer><feFuncA type="linear" slope="0.055"/></feComponentTransfer>
    </filter>
    <filter id="weave">
      <feTurbulence type="fractalNoise" baseFrequency="0.02 0.6" numOctaves="2" seed="1418"/>
      <feColorMatrix type="saturate" values="0"/>
      <feComponentTransfer><feFuncA type="linear" slope="0.07"/></feComponentTransfer>
    </filter>
    <filter id="softShadow" x="-40%" y="-40%" width="180%" height="180%">
      <feDropShadow dx="16" dy="26" stdDeviation="22" flood-color="#14181A" flood-opacity="0.20"/>
    </filter>
  </defs>
<rect width="1200" height="1200" fill="url(#copper)"/>
<circle cx="-171.6" cy="-52.4" r="65.4" fill="#FFE7CC" opacity="0.176"/><circle cx="-150.7" cy="-30.2" r="47.1" fill="#5A2E0C" opacity="0.065"/><circle cx="-52.2" cy="-42.6" r="54.2" fill="#FFE7CC" opacity="0.078"/><circle cx="-34.8" cy="-24.1" r="39.1" fill="#5A2E0C" opacity="0.051"/><circle cx="72.2" cy="-55.9" r="64.3" fill="#FFE7CC" opacity="0.083"/><circle cx="92.8" cy="-34.1" r="46.3" fill="#5A2E0C" opacity="0.115"/><circle cx="196.3" cy="-25.7" r="56.2" fill="#FFE7CC" opacity="0.116"/><circle cx="214.2" cy="-6.6" r="40.5" fill="#5A2E0C" opacity="0.058"/><circle cx="300.5" cy="-28.5" r="65.8" fill="#FFE7CC" opacity="0.164"/><circle cx="321.6" cy="-6.1" r="47.4" fill="#5A2E0C" opacity="0.146"/><circle cx="448.2" cy="-36.1" r="52.4" fill="#FFE7CC" opacity="0.107"/><circle cx="465.0" cy="-18.3" r="37.7" fill="#5A2E0C" opacity="0.158"/><circle cx="562.6" cy="-34.9" r="64.6" fill="#FFE7CC" opacity="0.171"/><circle cx="583.3" cy="-12.9" r="46.5" fill="#5A2E0C" opacity="0.153"/><circle cx="658.7" cy="-43.0" r="65.9" fill="#FFE7CC" opacity="0.099"/><circle cx="679.8" cy="-20.6" r="47.5" fill="#5A2E0C" opacity="0.130"/><circle cx="787.4" cy="-48.9" r="56.3" fill="#FFE7CC" opacity="0.126"/><circle cx="805.4" cy="-29.7" r="40.5" fill="#5A2E0C" opacity="0.177"/><circle cx="911.6" cy="-26.7" r="58.7" fill="#FFE7CC" opacity="0.158"/><circle cx="930.4" cy="-6.7" r="42.3" fill="#5A2E0C" opacity="0.139"/><circle cx="1033.7" cy="-54.4" r="58.4" fill="#FFE7CC" opacity="0.181"/><circle cx="1052.4" cy="-34.5" r="42.1" fill="#5A2E0C" opacity="0.144"/><circle cx="1140.5" cy="-34.5" r="64.1" fill="#FFE7CC" opacity="0.097"/><circle cx="1161.0" cy="-12.7" r="46.2" fill="#5A2E0C" opacity="0.103"/><circle cx="1262.6" cy="-49.0" r="69.6" fill="#FFE7CC" opacity="0.182"/><circle cx="1284.9" cy="-25.3" r="50.1" fill="#5A2E0C" opacity="0.124"/><circle cx="-106.2" cy="57.2" r="49.7" fill="#FFE7CC" opacity="0.168"/><circle cx="-90.2" cy="74.1" r="35.8" fill="#5A2E0C" opacity="0.164"/><circle cx="10.3" cy="52.6" r="50.6" fill="#FFE7CC" opacity="0.074"/><circle cx="26.5" cy="69.8" r="36.4" fill="#5A2E0C" opacity="0.114"/><circle cx="121.1" cy="52.5" r="50.3" fill="#FFE7CC" opacity="0.115"/><circle cx="137.2" cy="69.6" r="36.2" fill="#5A2E0C" opacity="0.157"/><circle cx="268.5" cy="75.4" r="56.8" fill="#FFE7CC" opacity="0.169"/><circle cx="286.7" cy="94.7" r="40.9" fill="#5A2E0C" opacity="0.161"/><circle cx="378.6" cy="45.9" r="55.9" fill="#FFE7CC" opacity="0.079"/><circle cx="396.5" cy="64.8" r="40.2" fill="#5A2E0C" opacity="0.108"/><circle cx="487.1" cy="51.9" r="52.8" fill="#FFE7CC" opacity="0.111"/><circle cx="504.0" cy="69.9" r="38.0" fill="#5A2E0C" opacity="0.053"/><circle cx="597.6" cy="50.1" r="54.0" fill="#FFE7CC" opacity="0.156"/><circle cx="614.9" cy="68.5" r="38.9" fill="#5A2E0C" opacity="0.148"/><circle cx="738.7" cy="67.0" r="56.0" fill="#FFE7CC" opacity="0.193"/><circle cx="756.6" cy="86.0" r="40.3" fill="#5A2E0C" opacity="0.083"/><circle cx="836.4" cy="51.7" r="61.9" fill="#FFE7CC" opacity="0.114"/><circle cx="856.2" cy="72.8" r="44.6" fill="#5A2E0C" opacity="0.095"/><circle cx="954.2" cy="65.7" r="49.8" fill="#FFE7CC" opacity="0.154"/><circle cx="970.1" cy="82.6" r="35.9" fill="#5A2E0C" opacity="0.106"/><circle cx="1068.2" cy="60.2" r="58.0" fill="#FFE7CC" opacity="0.110"/><circle cx="1086.8" cy="80.0" r="41.8" fill="#5A2E0C" opacity="0.154"/><circle cx="1188.5" cy="65.6" r="62.2" fill="#FFE7CC" opacity="0.190"/><circle cx="1208.5" cy="86.8" r="44.8" fill="#5A2E0C" opacity="0.157"/><circle cx="1321.8" cy="49.0" r="52.6" fill="#FFE7CC" opacity="0.188"/><circle cx="1338.6" cy="66.9" r="37.8" fill="#5A2E0C" opacity="0.143"/><circle cx="-149.2" cy="147.4" r="73.2" fill="#FFE7CC" opacity="0.173"/><circle cx="-125.8" cy="172.2" r="52.7" fill="#5A2E0C" opacity="0.057"/><circle cx="-31.2" cy="175.8" r="56.2" fill="#FFE7CC" opacity="0.078"/><circle cx="-13.2" cy="194.9" r="40.5" fill="#5A2E0C" opacity="0.164"/><circle cx="91.3" cy="147.1" r="67.7" fill="#FFE7CC" opacity="0.184"/><circle cx="112.9" cy="170.1" r="48.7" fill="#5A2E0C" opacity="0.105"/><circle cx="208.3" cy="173.6" r="60.6" fill="#FFE7CC" opacity="0.190"/><circle cx="227.7" cy="194.2" r="43.6" fill="#5A2E0C" opacity="0.104"/><circle cx="311.1" cy="159.7" r="66.9" fill="#FFE7CC" opacity="0.076"/><circle cx="332.5" cy="182.5" r="48.2" fill="#5A2E0C" opacity="0.124"/><circle cx="430.2" cy="173.3" r="57.1" fill="#FFE7CC" opacity="0.167"/><circle cx="448.5" cy="192.7" r="41.1" fill="#5A2E0C" opacity="0.139"/><circle cx="546.8" cy="164.6" r="55.2" fill="#FFE7CC" opacity="0.070"/><circle cx="564.5" cy="183.4" r="39.8" fill="#5A2E0C" opacity="0.065"/><circle cx="655.4" cy="148.9" r="61.5" fill="#FFE7CC" opacity="0.202"/><circle cx="675.1" cy="169.8" r="44.3" fill="#5A2E0C" opacity="0.084"/><circle cx="787.5" cy="174.0" r="69.5" fill="#FFE7CC" opacity="0.137"/><circle cx="809.7" cy="197.6" r="50.1" fill="#5A2E0C" opacity="0.109"/><circle cx="891.1" cy="161.9" r="55.2" fill="#FFE7CC" opacity="0.077"/><circle cx="908.8" cy="180.7" r="39.8" fill="#5A2E0C" opacity="0.115"/><circle cx="1011.4" cy="165.9" r="62.6" fill="#FFE7CC" opacity="0.109"/><circle cx="1031.5" cy="187.2" r="45.1" fill="#5A2E0C" opacity="0.187"/><circle cx="1147.3" cy="160.6" r="67.1" fill="#FFE7CC" opacity="0.122"/><circle cx="1168.7" cy="183.5" r="48.3" fill="#5A2E0C" opacity="0.065"/><circle cx="1271.0" cy="160.7" r="58.3" fill="#FFE7CC" opacity="0.214"/><circle cx="1289.6" cy="180.5" r="41.9" fill="#5A2E0C" opacity="0.073"/><circle cx="-108.4" cy="271.4" r="53.7" fill="#FFE7CC" opacity="0.114"/><circle cx="-91.2" cy="289.7" r="38.6" fill="#5A2E0C" opacity="0.106"/><circle cx="11.9" cy="258.7" r="62.8" fill="#FFE7CC" opacity="0.119"/><circle cx="32.0" cy="280.1" r="45.2" fill="#5A2E0C" opacity="0.186"/><circle cx="124.0" cy="280.8" r="61.3" fill="#FFE7CC" opacity="0.171"/><circle cx="143.6" cy="301.6" r="44.1" fill="#5A2E0C" opacity="0.080"/><circle cx="239.1" cy="266.2" r="68.2" fill="#FFE7CC" opacity="0.203"/><circle cx="260.9" cy="289.4" r="49.1" fill="#5A2E0C" opacity="0.069"/><circle cx="387.0" cy="265.1" r="67.9" fill="#FFE7CC" opacity="0.103"/><circle cx="408.8" cy="288.2" r="48.9" fill="#5A2E0C" opacity="0.089"/><circle cx="483.6" cy="251.1" r="61.4" fill="#FFE7CC" opacity="0.164"/><circle cx="503.2" cy="272.0" r="44.2" fill="#5A2E0C" opacity="0.109"/><circle cx="610.7" cy="271.9" r="64.4" fill="#FFE7CC" opacity="0.147"/><circle cx="631.3" cy="293.8" r="46.4" fill="#5A2E0C" opacity="0.141"/><circle cx="713.9" cy="270.7" r="56.4" fill="#FFE7CC" opacity="0.157"/><circle cx="731.9" cy="289.9" r="40.6" fill="#5A2E0C" opacity="0.111"/><circle cx="849.9" cy="278.2" r="67.0" fill="#FFE7CC" opacity="0.146"/><circle cx="871.4" cy="301.0" r="48.2" fill="#5A2E0C" opacity="0.187"/><circle cx="956.5" cy="278.6" r="67.9" fill="#FFE7CC" opacity="0.136"/><circle cx="978.3" cy="301.7" r="48.9" fill="#5A2E0C" opacity="0.125"/><circle cx="1093.4" cy="261.7" r="59.1" fill="#FFE7CC" opacity="0.121"/><circle cx="1112.3" cy="281.8" r="42.5" fill="#5A2E0C" opacity="0.190"/><circle cx="1200.2" cy="266.0" r="67.6" fill="#FFE7CC" opacity="0.113"/><circle cx="1221.8" cy="289.0" r="48.7" fill="#5A2E0C" opacity="0.178"/><circle cx="1316.2" cy="257.3" r="59.3" fill="#FFE7CC" opacity="0.068"/><circle cx="1335.2" cy="277.5" r="42.7" fill="#5A2E0C" opacity="0.058"/><circle cx="-158.8" cy="359.6" r="69.9" fill="#FFE7CC" opacity="0.193"/><circle cx="-136.4" cy="383.4" r="50.3" fill="#5A2E0C" opacity="0.064"/><circle cx="-27.4" cy="371.8" r="69.6" fill="#FFE7CC" opacity="0.086"/><circle cx="-5.1" cy="395.5" r="50.1" fill="#5A2E0C" opacity="0.187"/><circle cx="79.5" cy="378.7" r="53.4" fill="#FFE7CC" opacity="0.136"/><circle cx="96.6" cy="396.8" r="38.4" fill="#5A2E0C" opacity="0.071"/><circle cx="187.3" cy="368.7" r="56.7" fill="#FFE7CC" opacity="0.096"/><circle cx="205.5" cy="388.0" r="40.8" fill="#5A2E0C" opacity="0.130"/><circle cx="321.3" cy="363.7" r="66.3" fill="#FFE7CC" opacity="0.102"/><circle cx="342.5" cy="386.2" r="47.7" fill="#5A2E0C" opacity="0.059"/><circle cx="446.1" cy="371.5" r="50.7" fill="#FFE7CC" opacity="0.125"/><circle cx="462.4" cy="388.7" r="36.5" fill="#5A2E0C" opacity="0.073"/><circle cx="537.9" cy="355.0" r="61.7" fill="#FFE7CC" opacity="0.149"/><circle cx="557.6" cy="376.0" r="44.5" fill="#5A2E0C" opacity="0.120"/><circle cx="658.7" cy="368.5" r="55.2" fill="#FFE7CC" opacity="0.135"/><circle cx="676.4" cy="387.3" r="39.7" fill="#5A2E0C" opacity="0.150"/><circle cx="784.8" cy="376.3" r="64.0" fill="#FFE7CC" opacity="0.184"/><circle cx="805.3" cy="398.0" r="46.1" fill="#5A2E0C" opacity="0.167"/><circle cx="918.2" cy="353.6" r="71.0" fill="#FFE7CC" opacity="0.106"/><circle cx="940.9" cy="377.7" r="51.2" fill="#5A2E0C" opacity="0.102"/><circle cx="1027.2" cy="355.5" r="56.8" fill="#FFE7CC" opacity="0.077"/><circle cx="1045.4" cy="374.8" r="40.9" fill="#5A2E0C" opacity="0.166"/><circle cx="1149.4" cy="375.2" r="70.6" fill="#FFE7CC" opacity="0.219"/><circle cx="1172.0" cy="399.2" r="50.9" fill="#5A2E0C" opacity="0.174"/><circle cx="1263.4" cy="361.0" r="51.5" fill="#FFE7CC" opacity="0.110"/><circle cx="1279.9" cy="378.5" r="37.1" fill="#5A2E0C" opacity="0.154"/><circle cx="-95.4" cy="475.9" r="63.9" fill="#FFE7CC" opacity="0.169"/><circle cx="-74.9" cy="497.7" r="46.0" fill="#5A2E0C" opacity="0.117"/><circle cx="9.0" cy="477.2" r="72.0" fill="#FFE7CC" opacity="0.143"/><circle cx="32.1" cy="501.6" r="51.8" fill="#5A2E0C" opacity="0.056"/><circle cx="128.8" cy="483.3" r="70.7" fill="#FFE7CC" opacity="0.169"/><circle cx="151.4" cy="507.4" r="50.9" fill="#5A2E0C" opacity="0.131"/><circle cx="260.5" cy="465.7" r="63.4" fill="#FFE7CC" opacity="0.179"/><circle cx="280.8" cy="487.3" r="45.6" fill="#5A2E0C" opacity="0.072"/><circle cx="387.9" cy="464.9" r="61.2" fill="#FFE7CC" opacity="0.094"/><circle cx="407.5" cy="485.7" r="44.1" fill="#5A2E0C" opacity="0.076"/><circle cx="493.7" cy="478.7" r="62.9" fill="#FFE7CC" opacity="0.156"/><circle cx="513.8" cy="500.0" r="45.3" fill="#5A2E0C" opacity="0.115"/><circle cx="602.6" cy="455.1" r="53.8" fill="#FFE7CC" opacity="0.103"/><circle cx="619.8" cy="473.4" r="38.8" fill="#5A2E0C" opacity="0.085"/><circle cx="721.7" cy="475.7" r="60.4" fill="#FFE7CC" opacity="0.114"/><circle cx="741.0" cy="496.2" r="43.5" fill="#5A2E0C" opacity="0.140"/><circle cx="833.4" cy="453.8" r="55.3" fill="#FFE7CC" opacity="0.140"/><circle cx="851.1" cy="472.6" r="39.8" fill="#5A2E0C" opacity="0.157"/><circle cx="972.8" cy="451.1" r="60.3" fill="#FFE7CC" opacity="0.122"/><circle cx="992.1" cy="471.6" r="43.4" fill="#5A2E0C" opacity="0.181"/><circle cx="1071.8" cy="475.0" r="53.9" fill="#FFE7CC" opacity="0.154"/><circle cx="1089.1" cy="493.3" r="38.8" fill="#5A2E0C" opacity="0.161"/><circle cx="1193.3" cy="482.1" r="67.5" fill="#FFE7CC" opacity="0.096"/><circle cx="1214.9" cy="505.0" r="48.6" fill="#5A2E0C" opacity="0.132"/><circle cx="1306.9" cy="462.2" r="59.3" fill="#FFE7CC" opacity="0.151"/><circle cx="1325.9" cy="482.3" r="42.7" fill="#5A2E0C" opacity="0.123"/><circle cx="-160.1" cy="577.9" r="68.5" fill="#FFE7CC" opacity="0.116"/><circle cx="-138.2" cy="601.2" r="49.3" fill="#5A2E0C" opacity="0.187"/><circle cx="-55.0" cy="577.3" r="61.8" fill="#FFE7CC" opacity="0.129"/><circle cx="-35.2" cy="598.4" r="44.5" fill="#5A2E0C" opacity="0.064"/><circle cx="85.0" cy="554.8" r="59.7" fill="#FFE7CC" opacity="0.193"/><circle cx="104.1" cy="575.1" r="43.0" fill="#5A2E0C" opacity="0.130"/><circle cx="211.1" cy="573.3" r="63.1" fill="#FFE7CC" opacity="0.152"/><circle cx="231.2" cy="594.7" r="45.4" fill="#5A2E0C" opacity="0.141"/><circle cx="313.3" cy="577.0" r="58.0" fill="#FFE7CC" opacity="0.203"/><circle cx="331.8" cy="596.7" r="41.7" fill="#5A2E0C" opacity="0.166"/><circle cx="440.1" cy="570.0" r="52.2" fill="#FFE7CC" opacity="0.210"/><circle cx="456.8" cy="587.7" r="37.6" fill="#5A2E0C" opacity="0.111"/><circle cx="555.7" cy="554.5" r="66.9" fill="#FFE7CC" opacity="0.184"/><circle cx="577.1" cy="577.2" r="48.1" fill="#5A2E0C" opacity="0.178"/><circle cx="654.7" cy="568.1" r="52.1" fill="#FFE7CC" opacity="0.118"/><circle cx="671.4" cy="585.8" r="37.5" fill="#5A2E0C" opacity="0.151"/><circle cx="797.1" cy="567.0" r="71.8" fill="#FFE7CC" opacity="0.192"/><circle cx="820.1" cy="591.4" r="51.7" fill="#5A2E0C" opacity="0.137"/><circle cx="890.6" cy="555.1" r="61.6" fill="#FFE7CC" opacity="0.066"/><circle cx="910.3" cy="576.1" r="44.4" fill="#5A2E0C" opacity="0.137"/><circle cx="1008.1" cy="585.0" r="64.5" fill="#FFE7CC" opacity="0.067"/><circle cx="1028.8" cy="607.0" r="46.5" fill="#5A2E0C" opacity="0.124"/><circle cx="1143.5" cy="578.8" r="51.5" fill="#FFE7CC" opacity="0.193"/><circle cx="1160.0" cy="596.3" r="37.1" fill="#5A2E0C" opacity="0.152"/><circle cx="1258.8" cy="561.8" r="57.5" fill="#FFE7CC" opacity="0.085"/><circle cx="1277.2" cy="581.4" r="41.4" fill="#5A2E0C" opacity="0.067"/><circle cx="-95.4" cy="656.9" r="63.6" fill="#FFE7CC" opacity="0.219"/><circle cx="-75.1" cy="678.5" r="45.8" fill="#5A2E0C" opacity="0.104"/><circle cx="23.0" cy="683.9" r="56.6" fill="#FFE7CC" opacity="0.204"/><circle cx="41.1" cy="703.1" r="40.7" fill="#5A2E0C" opacity="0.092"/><circle cx="150.9" cy="676.3" r="72.7" fill="#FFE7CC" opacity="0.098"/><circle cx="174.2" cy="701.0" r="52.3" fill="#5A2E0C" opacity="0.152"/><circle cx="252.5" cy="659.2" r="52.6" fill="#FFE7CC" opacity="0.145"/><circle cx="269.3" cy="677.1" r="37.9" fill="#5A2E0C" opacity="0.130"/><circle cx="380.1" cy="669.0" r="61.4" fill="#FFE7CC" opacity="0.143"/><circle cx="399.7" cy="689.9" r="44.2" fill="#5A2E0C" opacity="0.126"/><circle cx="505.8" cy="661.9" r="60.6" fill="#FFE7CC" opacity="0.125"/><circle cx="525.2" cy="682.5" r="43.6" fill="#5A2E0C" opacity="0.146"/><circle cx="603.1" cy="654.1" r="54.5" fill="#FFE7CC" opacity="0.183"/><circle cx="620.6" cy="672.6" r="39.2" fill="#5A2E0C" opacity="0.079"/><circle cx="719.9" cy="668.1" r="62.0" fill="#FFE7CC" opacity="0.069"/><circle cx="739.7" cy="689.2" r="44.7" fill="#5A2E0C" opacity="0.118"/><circle cx="841.6" cy="666.1" r="61.6" fill="#FFE7CC" opacity="0.157"/><circle cx="861.3" cy="687.0" r="44.3" fill="#5A2E0C" opacity="0.099"/><circle cx="966.6" cy="654.9" r="61.6" fill="#FFE7CC" opacity="0.109"/><circle cx="986.3" cy="675.8" r="44.3" fill="#5A2E0C" opacity="0.080"/><circle cx="1065.8" cy="664.4" r="54.7" fill="#FFE7CC" opacity="0.086"/><circle cx="1083.3" cy="682.9" r="39.4" fill="#5A2E0C" opacity="0.175"/><circle cx="1191.2" cy="662.3" r="50.5" fill="#FFE7CC" opacity="0.184"/><circle cx="1207.4" cy="679.4" r="36.3" fill="#5A2E0C" opacity="0.140"/><circle cx="1313.1" cy="667.7" r="58.7" fill="#FFE7CC" opacity="0.149"/><circle cx="1331.9" cy="687.7" r="42.3" fill="#5A2E0C" opacity="0.153"/><circle cx="-163.2" cy="770.4" r="65.6" fill="#FFE7CC" opacity="0.205"/><circle cx="-142.2" cy="792.7" r="47.2" fill="#5A2E0C" opacity="0.083"/><circle cx="-50.9" cy="775.7" r="60.0" fill="#FFE7CC" opacity="0.153"/><circle cx="-31.7" cy="796.1" r="43.2" fill="#5A2E0C" opacity="0.056"/><circle cx="78.9" cy="777.0" r="50.4" fill="#FFE7CC" opacity="0.135"/><circle cx="95.0" cy="794.1" r="36.3" fill="#5A2E0C" opacity="0.083"/><circle cx="203.5" cy="773.0" r="49.9" fill="#FFE7CC" opacity="0.103"/><circle cx="219.4" cy="790.0" r="35.9" fill="#5A2E0C" opacity="0.171"/><circle cx="317.7" cy="780.3" r="50.5" fill="#FFE7CC" opacity="0.106"/><circle cx="333.9" cy="797.5" r="36.4" fill="#5A2E0C" opacity="0.136"/><circle cx="440.7" cy="787.7" r="59.9" fill="#FFE7CC" opacity="0.150"/><circle cx="459.9" cy="808.1" r="43.1" fill="#5A2E0C" opacity="0.100"/><circle cx="557.1" cy="770.4" r="55.9" fill="#FFE7CC" opacity="0.138"/><circle cx="575.0" cy="789.4" r="40.2" fill="#5A2E0C" opacity="0.175"/><circle cx="651.9" cy="786.7" r="57.9" fill="#FFE7CC" opacity="0.064"/><circle cx="670.4" cy="806.4" r="41.7" fill="#5A2E0C" opacity="0.175"/><circle cx="773.5" cy="782.7" r="52.5" fill="#FFE7CC" opacity="0.067"/><circle cx="790.3" cy="800.6" r="37.8" fill="#5A2E0C" opacity="0.054"/><circle cx="891.4" cy="766.9" r="71.0" fill="#FFE7CC" opacity="0.169"/><circle cx="914.2" cy="791.1" r="51.1" fill="#5A2E0C" opacity="0.167"/><circle cx="1031.5" cy="769.9" r="59.1" fill="#FFE7CC" opacity="0.213"/><circle cx="1050.4" cy="790.0" r="42.5" fill="#5A2E0C" opacity="0.091"/><circle cx="1131.4" cy="776.6" r="54.3" fill="#FFE7CC" opacity="0.180"/><circle cx="1148.8" cy="795.0" r="39.1" fill="#5A2E0C" opacity="0.096"/><circle cx="1251.8" cy="770.5" r="53.9" fill="#FFE7CC" opacity="0.211"/><circle cx="1269.0" cy="788.8" r="38.8" fill="#5A2E0C" opacity="0.093"/><circle cx="-88.9" cy="866.8" r="59.0" fill="#FFE7CC" opacity="0.067"/><circle cx="-70.1" cy="886.8" r="42.5" fill="#5A2E0C" opacity="0.053"/><circle cx="15.4" cy="858.9" r="52.0" fill="#FFE7CC" opacity="0.174"/><circle cx="32.1" cy="876.5" r="37.4" fill="#5A2E0C" opacity="0.150"/><circle cx="146.3" cy="877.2" r="61.4" fill="#FFE7CC" opacity="0.150"/><circle cx="165.9" cy="898.1" r="44.2" fill="#5A2E0C" opacity="0.184"/><circle cx="269.9" cy="887.0" r="55.4" fill="#FFE7CC" opacity="0.087"/><circle cx="287.7" cy="905.9" r="39.9" fill="#5A2E0C" opacity="0.078"/><circle cx="371.9" cy="878.7" r="51.5" fill="#FFE7CC" opacity="0.199"/><circle cx="388.4" cy="896.3" r="37.1" fill="#5A2E0C" opacity="0.089"/><circle cx="483.3" cy="858.7" r="62.7" fill="#FFE7CC" opacity="0.104"/><circle cx="503.3" cy="880.0" r="45.2" fill="#5A2E0C" opacity="0.105"/><circle cx="596.4" cy="870.8" r="58.8" fill="#FFE7CC" opacity="0.120"/><circle cx="615.2" cy="890.8" r="42.4" fill="#5A2E0C" opacity="0.184"/><circle cx="732.7" cy="876.1" r="57.1" fill="#FFE7CC" opacity="0.219"/><circle cx="750.9" cy="895.5" r="41.1" fill="#5A2E0C" opacity="0.094"/><circle cx="837.8" cy="883.4" r="65.2" fill="#FFE7CC" opacity="0.112"/><circle cx="858.7" cy="905.6" r="47.0" fill="#5A2E0C" opacity="0.092"/><circle cx="952.8" cy="864.7" r="69.4" fill="#FFE7CC" opacity="0.184"/><circle cx="975.0" cy="888.3" r="49.9" fill="#5A2E0C" opacity="0.133"/><circle cx="1090.9" cy="859.9" r="71.8" fill="#FFE7CC" opacity="0.215"/><circle cx="1113.8" cy="884.3" r="51.7" fill="#5A2E0C" opacity="0.090"/><circle cx="1210.7" cy="866.3" r="62.5" fill="#FFE7CC" opacity="0.109"/><circle cx="1230.7" cy="887.6" r="45.0" fill="#5A2E0C" opacity="0.062"/><circle cx="1323.1" cy="879.6" r="58.9" fill="#FFE7CC" opacity="0.176"/><circle cx="1341.9" cy="899.7" r="42.4" fill="#5A2E0C" opacity="0.090"/><circle cx="-141.8" cy="989.9" r="67.1" fill="#FFE7CC" opacity="0.146"/><circle cx="-120.3" cy="1012.7" r="48.3" fill="#5A2E0C" opacity="0.053"/><circle cx="-44.2" cy="977.9" r="71.5" fill="#FFE7CC" opacity="0.109"/><circle cx="-21.3" cy="1002.2" r="51.5" fill="#5A2E0C" opacity="0.071"/><circle cx="63.8" cy="983.3" r="63.5" fill="#FFE7CC" opacity="0.162"/><circle cx="84.1" cy="1004.9" r="45.7" fill="#5A2E0C" opacity="0.165"/><circle cx="191.7" cy="976.9" r="68.1" fill="#FFE7CC" opacity="0.128"/><circle cx="213.5" cy="1000.1" r="49.0" fill="#5A2E0C" opacity="0.151"/><circle cx="319.0" cy="963.1" r="71.2" fill="#FFE7CC" opacity="0.168"/><circle cx="341.8" cy="987.4" r="51.3" fill="#5A2E0C" opacity="0.101"/><circle cx="421.6" cy="988.7" r="66.8" fill="#FFE7CC" opacity="0.091"/><circle cx="443.0" cy="1011.4" r="48.1" fill="#5A2E0C" opacity="0.083"/><circle cx="543.6" cy="984.4" r="52.9" fill="#FFE7CC" opacity="0.187"/><circle cx="560.5" cy="1002.4" r="38.1" fill="#5A2E0C" opacity="0.076"/><circle cx="665.8" cy="982.1" r="51.6" fill="#FFE7CC" opacity="0.172"/><circle cx="682.3" cy="999.7" r="37.1" fill="#5A2E0C" opacity="0.057"/><circle cx="795.9" cy="983.4" r="57.6" fill="#FFE7CC" opacity="0.064"/><circle cx="814.3" cy="1002.9" r="41.4" fill="#5A2E0C" opacity="0.163"/><circle cx="909.2" cy="966.8" r="71.6" fill="#FFE7CC" opacity="0.089"/><circle cx="932.1" cy="991.2" r="51.5" fill="#5A2E0C" opacity="0.128"/><circle cx="1028.4" cy="969.5" r="57.1" fill="#FFE7CC" opacity="0.175"/><circle cx="1046.7" cy="989.0" r="41.1" fill="#5A2E0C" opacity="0.158"/><circle cx="1144.0" cy="972.3" r="71.5" fill="#FFE7CC" opacity="0.212"/><circle cx="1166.9" cy="996.6" r="51.5" fill="#5A2E0C" opacity="0.077"/><circle cx="1262.3" cy="964.2" r="65.7" fill="#FFE7CC" opacity="0.210"/><circle cx="1283.4" cy="986.6" r="47.3" fill="#5A2E0C" opacity="0.147"/><circle cx="-110.2" cy="1073.1" r="57.6" fill="#FFE7CC" opacity="0.194"/><circle cx="-91.7" cy="1092.7" r="41.5" fill="#5A2E0C" opacity="0.160"/><circle cx="20.9" cy="1091.4" r="60.9" fill="#FFE7CC" opacity="0.079"/><circle cx="40.4" cy="1112.1" r="43.8" fill="#5A2E0C" opacity="0.123"/><circle cx="143.7" cy="1065.9" r="68.5" fill="#FFE7CC" opacity="0.156"/><circle cx="165.6" cy="1089.1" r="49.3" fill="#5A2E0C" opacity="0.157"/><circle cx="253.1" cy="1079.9" r="52.2" fill="#FFE7CC" opacity="0.134"/><circle cx="269.8" cy="1097.7" r="37.6" fill="#5A2E0C" opacity="0.137"/><circle cx="378.0" cy="1088.3" r="56.7" fill="#FFE7CC" opacity="0.164"/><circle cx="396.1" cy="1107.6" r="40.9" fill="#5A2E0C" opacity="0.181"/><circle cx="498.7" cy="1092.5" r="58.8" fill="#FFE7CC" opacity="0.213"/><circle cx="517.6" cy="1112.5" r="42.4" fill="#5A2E0C" opacity="0.105"/><circle cx="617.6" cy="1092.8" r="66.0" fill="#FFE7CC" opacity="0.145"/><circle cx="638.8" cy="1115.2" r="47.5" fill="#5A2E0C" opacity="0.088"/><circle cx="711.0" cy="1062.4" r="53.8" fill="#FFE7CC" opacity="0.112"/><circle cx="728.2" cy="1080.7" r="38.7" fill="#5A2E0C" opacity="0.050"/><circle cx="844.9" cy="1073.3" r="66.0" fill="#FFE7CC" opacity="0.088"/><circle cx="866.0" cy="1095.7" r="47.5" fill="#5A2E0C" opacity="0.059"/><circle cx="971.6" cy="1091.1" r="60.8" fill="#FFE7CC" opacity="0.206"/><circle cx="991.1" cy="1111.8" r="43.8" fill="#5A2E0C" opacity="0.122"/><circle cx="1066.7" cy="1089.6" r="63.5" fill="#FFE7CC" opacity="0.166"/><circle cx="1087.1" cy="1111.2" r="45.7" fill="#5A2E0C" opacity="0.113"/><circle cx="1202.4" cy="1066.5" r="69.7" fill="#FFE7CC" opacity="0.166"/><circle cx="1224.7" cy="1090.2" r="50.2" fill="#5A2E0C" opacity="0.129"/><circle cx="1301.5" cy="1077.2" r="68.6" fill="#FFE7CC" opacity="0.161"/><circle cx="1323.4" cy="1100.5" r="49.4" fill="#5A2E0C" opacity="0.056"/><circle cx="-169.7" cy="1182.1" r="65.3" fill="#FFE7CC" opacity="0.186"/><circle cx="-148.8" cy="1204.4" r="47.0" fill="#5A2E0C" opacity="0.136"/><circle cx="-40.6" cy="1181.8" r="68.3" fill="#FFE7CC" opacity="0.126"/><circle cx="-18.8" cy="1205.0" r="49.2" fill="#5A2E0C" opacity="0.091"/><circle cx="70.5" cy="1169.7" r="69.1" fill="#FFE7CC" opacity="0.158"/><circle cx="92.6" cy="1193.2" r="49.7" fill="#5A2E0C" opacity="0.116"/><circle cx="207.7" cy="1171.5" r="54.3" fill="#FFE7CC" opacity="0.179"/><circle cx="225.1" cy="1190.0" r="39.1" fill="#5A2E0C" opacity="0.144"/><circle cx="311.5" cy="1178.1" r="63.6" fill="#FFE7CC" opacity="0.182"/><circle cx="331.8" cy="1199.8" r="45.8" fill="#5A2E0C" opacity="0.178"/><circle cx="426.3" cy="1186.1" r="49.8" fill="#FFE7CC" opacity="0.067"/><circle cx="442.3" cy="1203.1" r="35.9" fill="#5A2E0C" opacity="0.106"/><circle cx="561.5" cy="1179.8" r="62.1" fill="#FFE7CC" opacity="0.147"/><circle cx="581.3" cy="1200.9" r="44.7" fill="#5A2E0C" opacity="0.068"/><circle cx="652.1" cy="1182.0" r="51.3" fill="#FFE7CC" opacity="0.197"/><circle cx="668.5" cy="1199.4" r="36.9" fill="#5A2E0C" opacity="0.179"/><circle cx="791.0" cy="1173.9" r="62.7" fill="#FFE7CC" opacity="0.208"/><circle cx="811.0" cy="1195.3" r="45.1" fill="#5A2E0C" opacity="0.109"/><circle cx="903.6" cy="1165.6" r="66.9" fill="#FFE7CC" opacity="0.078"/><circle cx="925.0" cy="1188.4" r="48.2" fill="#5A2E0C" opacity="0.119"/><circle cx="1029.5" cy="1169.1" r="61.3" fill="#FFE7CC" opacity="0.105"/><circle cx="1049.2" cy="1189.9" r="44.2" fill="#5A2E0C" opacity="0.055"/><circle cx="1149.9" cy="1189.9" r="59.5" fill="#FFE7CC" opacity="0.199"/><circle cx="1169.0" cy="1210.1" r="42.9" fill="#5A2E0C" opacity="0.113"/><circle cx="1247.6" cy="1177.3" r="50.9" fill="#FFE7CC" opacity="0.094"/><circle cx="1263.9" cy="1194.6" r="36.6" fill="#5A2E0C" opacity="0.072"/>
<ellipse cx="106" cy="57" rx="177" ry="124" fill="#FFE7CC" opacity="0.07"/><ellipse cx="622" cy="778" rx="128" ry="90" fill="#FFE7CC" opacity="0.07"/><ellipse cx="867" cy="196" rx="287" ry="201" fill="#FFE7CC" opacity="0.07"/><ellipse cx="307" cy="664" rx="267" ry="187" fill="#FFE7CC" opacity="0.07"/><ellipse cx="693" cy="598" rx="238" ry="167" fill="#FFE7CC" opacity="0.07"/>
<rect width="1200" height="1200" fill="url(#sidelight)" opacity="0.5"/>
<rect width="1200" height="1200" filter="url(#grain)" opacity="0.5"/></svg>